<svg width="80" height="64" viewBox="0 0 80 64" fill="none" xmlns="http://www.w3.org/2000/svg">
<path d="M36.5359 6C38.0755 3.33334 41.9245 3.33333 43.4641 6L71.1769 54C72.7165 56.6667 70.792 60 67.7128 60H12.2872C9.20799 60 7.28348 56.6667 8.82308 54L36.5359 6Z" fill="#fd4a4a"/>
<path d="M43.1449 21.9091L42.5909 42.2784H37.392L36.8239 21.9091H43.1449ZM39.9915 51.3693C39.054 51.3693 38.2491 51.0379 37.5767 50.375C36.9044 49.7027 36.5729 48.8977 36.5824 47.9602C36.5729 47.0322 36.9044 46.2367 37.5767 45.5739C38.2491 44.911 39.054 44.5795 39.9915 44.5795C40.8911 44.5795 41.6818 44.911 42.3636 45.5739C43.0455 46.2367 43.3911 47.0322 43.4006 47.9602C43.3911 48.5852 43.2254 49.1581 42.9034 49.679C42.5909 50.1903 42.179 50.6023 41.6676 50.9148C41.1562 51.2178 40.5975 51.3693 39.9915 51.3693Z" fill="white"/>
</svg>
