<svg width="180" height="144" viewBox="0 0 180 144" fill="none" xmlns="http://www.w3.org/2000/svg">
<circle cx="72" cy="72" r="67" fill="#FF0000" stroke="black" stroke-width="10"/>
<path d="M170.828 74.8284C172.391 73.2663 172.391 70.7337 170.828 69.1716L145.373 43.7157C143.81 42.1536 141.278 42.1536 139.716 43.7157C138.154 45.2778 138.154 47.8105 139.716 49.3726L162.343 72L139.716 94.6274C138.154 96.1895 138.154 98.7222 139.716 100.284C141.278 101.846 143.81 101.846 145.373 100.284L170.828 74.8284ZM70 76H168V68H70V76Z" fill="black"/>
<circle cx="72" cy="72" r="14" fill="black"/>
<path d="M148.25 57.2106L173 71.5L148.25 85.7894L148.25 57.2106Z" fill="black"/>
</svg>
