<svg width="80" height="64" viewBox="0 0 80 64" fill="none" xmlns="http://www.w3.org/2000/svg">
<path d="M42.1651 6.75L69.8779 54.75C70.8401 56.4167 69.6373 58.5 67.7128 58.5H12.2872C10.3627 58.5 9.15987 56.4167 10.1221 54.75L37.8349 6.75C38.7972 5.08333 41.2028 5.08333 42.1651 6.75Z" stroke="white" stroke-width="3"/>
<path d="M43.1449 21.9091L42.5909 42.2784H37.392L36.8239 21.9091H43.1449ZM39.9915 51.3693C39.054 51.3693 38.2491 51.0379 37.5767 50.375C36.9044 49.7027 36.5729 48.8977 36.5824 47.9602C36.5729 47.0322 36.9044 46.2367 37.5767 45.5739C38.2491 44.911 39.054 44.5795 39.9915 44.5795C40.8911 44.5795 41.6818 44.911 42.3636 45.5739C43.0455 46.2367 43.3911 47.0322 43.4006 47.9602C43.3911 48.5852 43.2254 49.1581 42.9034 49.679C42.5909 50.1903 42.179 50.6023 41.6676 50.9148C41.1562 51.2178 40.5975 51.3693 39.9915 51.3693Z" fill="white"/>
</svg>
