<svg width="2000" height="2000" viewBox="0 0 2000 2000" fill="#434343" xmlns="http://www.w3.org/2000/svg">
<path d="M780.2 1783.8C781 1786.4 780.2 1792 776.4 1791.4C773.4 1790.8 774.8 1787.8 772.8 1786.6C771.6 1786 770 1786 769.6 1785C769.4 1784.6 769.4 1784.2 769.6 1783.8C770 1781.4 772.4 1779.8 774.8 1779.8C777.2 1779.8 779.4 1781.6 780.2 1783.8ZM732 1767.2C727.4 1767.8 723.2 1770.2 718.4 1771C713 1771.8 707.2 1770 701.6 1770.4C695 1771 689 1775 682.8 1777.8C679.4 1779.4 675.6 1780.8 671.6 1780.6C669.6 1780.6 667.4 1780 665.4 1779.6C657.2 1778.2 648.4 1780.4 641.6 1785.4C639 1787.4 636.2 1790 632.8 1790.2C630.8 1790.2 629 1789.4 627.2 1789.6C623 1789.8 620.4 1794.2 616.4 1795.8C611.6 1798 605 1795.8 601 1799.2C599 1801 598.2 1803.6 596 1805C594.2 1806.4 592 1806.6 590 1807.6C587.2 1809.2 585.6 1812.2 583.8 1815.2C580.2 1821.2 575.2 1826.6 569.2 1830.6C567 1832.4 564.4 1833.8 563 1836.4C561.8 1838.8 561.8 1841.6 561.8 1844.2C562 1851.2 562.6 1858.8 567.4 1863.8C570 1866.6 573.4 1868.2 576.4 1870.6C581.2 1874.6 584.4 1880.8 590.4 1883C591.4 1883.4 592.6 1883.6 593.6 1883.4C597 1882.6 597.6 1878.2 598.8 1875C600.6 1870.2 606.8 1866.4 611 1869.6C612 1870.4 612.8 1871.6 614 1872C618.2 1873.8 622 1866.8 626.4 1867.8C628.4 1868.2 630 1870.8 632.2 1870.8C634 1870.8 635.4 1869.4 637.2 1869.4C640.6 1869.2 642.6 1874.6 646 1874.2C647.2 1874 648.2 1873 649.2 1872.2C659 1865.2 675 1877 684.2 1869.2C688.2 1866 690.2 1859.6 695.2 1859.4C698.4 1859.2 701.4 1861.8 704.4 1861.2C708 1860.6 710.2 1856.4 713.6 1856.2C716.6 1856.2 719.4 1858.8 721.8 1857.4C723.8 1856 723.4 1852.8 725 1851.2C727.4 1848.4 731.6 1851 735.2 1851.2C738 1851.6 740.8 1850 742.4 1847.8C743 1846.8 743.4 1845.8 744 1845.2C745 1844.2 746.6 1843.8 747.8 1843C753.8 1839.8 752.6 1830.6 757 1825.6C760.6 1821.2 768.2 1819.6 768.2 1814C768.2 1812.2 767.4 1810.6 767.2 1808.8C767 1806 768.4 1803.2 768 1800.6C767.6 1797.8 765.4 1795.8 764.2 1793.2C762 1788.8 762.8 1782.6 758.8 1779.8C756.2 1778 752.8 1778.4 749.6 1778.4C740.4 1778 742.4 1766.2 732 1767.2Z"  stroke="#161616" stroke-width="1.5" stroke-linecap="round" stroke-linejoin="round"/>
<path d="M601.8 387.4C600.2 388.8 598.4 390 596.8 390.4C595.2 391 593.4 390.6 591.6 390.2C590.6 389.8 589.8 389.6 588.8 389.6C585.8 389.8 584.4 393.6 581.4 394.8C579 395.8 576.2 394.4 575 392.2C573.6 389.8 573.8 387 574.6 384.6C575.8 381 578.4 377.8 581.8 375.6C584 374.2 586.6 373.2 589.2 374C591.4 374.4 593.2 376.2 595.2 376.4C597 376.8 598.6 376.2 600.2 376C611 373.6 607.2 382.4 601.8 387.4ZM572.6 425C571 426 568.6 425.8 566.8 424.8C566.4 424.4 565.8 424 565.2 423.6C564.4 423.4 563.4 423.6 562.4 423.4C561.6 423.4 560.4 423.2 560.2 422.2C560 421.4 560.4 420.6 560.8 420.2C561.6 419.6 562.4 419 563.4 419C566 418.8 568 415.4 570.4 416.2C573.2 417.4 575.4 422.8 572.6 425ZM588.4 436.2C589.4 433.4 587.8 430 585 429.2C583.4 428.8 577.2 428 577 431.2C577 432.4 578.2 433.4 579.6 433.8C580.8 434.2 582.2 434.4 583.2 435.4C583.8 436 584 437 584.8 437.6C586 438.4 588 437.6 588.4 436.2ZM607.4 412.6C609 414 611.2 414.6 613.2 415.2C615.2 416 617.4 417.2 618.2 419.2C618.6 420.6 618.2 422.2 617.8 423.6C617 426 615.4 428.4 613.2 429.6C610.8 430.8 607.6 430.2 606.2 428C605.2 426 605.8 423.4 604.6 421.4C603.4 419.8 601.2 419.4 599.6 418.4C597 416.6 595.6 413.6 595.2 410.4C595 408.2 593.2 401.6 596 400.2C597 399.6 598.4 399.4 599.2 398.4C602 394.4 604 391.4 605.4 397.8C606 401.4 604.6 409.8 607.4 412.6ZM624.8 471.2C624.6 468.6 611.8 465.8 609.4 463C608.2 461.4 606.2 460.4 604.2 461C602.4 461.4 601 463.6 601.6 465.4C602.8 467.8 606.2 468 607.6 470.2C608.8 472 608 474.8 609.4 476.4C610.6 477.8 612.8 477.6 614.6 476.8C616.2 476 617.6 474.8 619.4 474.4C620.6 474 621.8 474 622.8 473.8C624 473.4 625 472.4 624.8 471.2ZM645 469.4C645.2 467.2 642.6 465.8 640.4 465.6C638.4 465.4 636.4 465.4 634.8 466.2C633 467.2 631.8 469.4 632.4 471.2C632.8 472 633.4 472.8 633.8 473.6C635 476.6 632 479.6 629.4 481.6C626.733 483.467 624 485.4 621.2 487.4C618.6 489.4 615.6 492 615.8 495.4C616 498.6 619.2 500.8 622.4 501.6C625.4 502.4 628.8 502.4 631.6 503.8C635.2 505.4 638.2 509.2 642.2 508.8C646.6 508.6 649 503.6 649.6 499.2C649.8 497.4 649.8 495.4 650.4 493.8C651 492 652.4 490.4 654.2 490.2C656.6 490 658.8 492.4 661.4 492.2C662.8 492 664 491.2 665 490.4C667 488.8 669.2 487.2 670.6 485C672 483 672.6 480.2 671.8 477.8C670.4 474.6 665.6 473 662.8 475.2C662 475.6 661.4 476.2 660.6 476.4C659.6 476.4 658.8 475.6 658 475C655.4 472.8 651.2 471.4 648.8 473.8C647.2 475.2 647 477.4 646.4 479.4C645.2 484.2 639.2 484.6 638.6 479.4C638 474.4 644.8 473.4 645 469.4ZM629.6 524.6C630.6 526 632.2 527 633.8 526.6C636.4 526 638 519.8 636.8 517.6C635.8 516.4 633.4 515.6 632.4 514.2C631.2 512.8 631.6 511 629.6 510.4C627.8 510 625.4 511.6 624.8 513.2C624.4 514.6 625.8 516.6 627 518.4C628.4 520.4 628.2 522.8 629.6 524.6ZM595.2 555.8C594.933 555.933 594.667 556.133 594.4 556.4C592.8 558.4 592 561.4 593.6 563.4C595.8 565.8 599.8 564.2 602.8 565.2C605.4 566.2 608 570 611 568C613.4 566.6 613.2 562.8 611.6 561C609.6 558.6 606.2 559.2 603.6 558.8C601.6 558.6 596.4 555 595.2 555.8ZM636.2 554.8C637.8 553 640.2 551.6 642.2 552.6C643 552.8 643.6 553.4 644.2 553.8C645.6 554.6 647.4 554.4 649 554.4C650.6 554.4 652.4 554.8 653.2 556.2C654 557.6 653.2 559.6 652 561C650.8 562.2 649.2 563 648 564.4C646.4 566 645.8 568.2 643.8 569.4C633.8 575 631.8 560.4 636.2 554.8ZM534.6 615.2C533.6 604.8 553.8 610.6 540.4 618.2C539 619 536.4 618.4 535.2 617.2C534.8 616.6 534.6 615.8 534.6 615.2ZM546.8 585C548.8 587 552.4 588.2 549.8 591.4C548.4 593 544.8 593.2 543 592.4C541.4 591.6 540 590.2 539.6 588.4C539 586.8 539.4 584.8 540.6 583.6C542 582.4 544.2 582.2 545.6 583.4C546 583.8 546.4 584.4 546.8 585ZM551.2 564.2C550.267 562.867 549.333 561.6 548.4 560.4C547.6 559.2 546.6 558.2 545.4 557.8C543.8 557.6 542.2 558.8 541.4 560.2C539.4 563 539.4 567.2 542 569.6C543.4 570.8 545.4 571.4 546.8 572.8C547.6 573.8 548 575.2 548.6 576.2C549.2 577.4 550 578.4 551.4 578.6C553 579 554.4 577.4 555.6 576C556.8 574.6 558.2 573.2 560 573.6C561.4 574 562.2 575.4 562.8 576.6C563.6 577.8 564.6 579.2 566.2 579C567.2 579 568 578 568.2 577C568.6 576 568.4 574.8 568 573.8C567.8 573 567.6 572.2 567 571.6C565.6 570.2 563.4 570.6 561.8 569.6C560.4 568.8 559.6 567.2 558.4 565.8C555.6 563.4 553.4 567.2 551.2 564.2ZM661.2 428.4C662.6 430.8 664.2 433.6 663.2 436.2C662.4 438.2 660.4 439.4 659.6 441.2C658.8 443.6 660 446.8 658.4 448.8C657.4 450.2 655.2 450.4 653.4 449.8C651.6 449.2 650.2 448.2 648.4 447.4C644.2 445.8 639.6 446.4 635 447C630.6 447.6 625.8 448 622 445.6C618.2 443 616.8 436.8 620.4 434.2C621.8 433.2 623.4 433 624.6 432C626.4 430.6 627 428 626.8 425.8C626.4 423.4 625.4 421.4 624.2 419.4C623 416.8 621.6 414.2 619 413.2C617.2 412.4 615.2 412.4 613.8 411.4C612.2 410 611.8 407.6 611.6 405.4C611.2 400.733 610.8 396.067 610.4 391.4C610 387.2 610.4 381.8 614.4 380.6C615.4 380.2 616.8 380.4 617.8 379.8C620 379 621.2 376.6 622.6 375C625.6 371.8 630.8 371.2 635 372.2C639.2 373.4 642.8 376 646.4 378.6C653.4 383.8 659 390.2 658.4 399.4C657.8 409.4 656.6 419.2 661.2 428.4ZM594.6 591.2C593.2 588.2 587.4 584.8 584 586.2C581 587.2 580.8 591.6 583.2 593.4C584 594 585 594.2 586 594.4C587.6 594.933 589.267 595.4 591 595.8C591.6 596 592 596 592.4 596C594.6 596 595.6 593.2 594.6 591.2ZM730.2 495.4C731 492.8 731.8 490 731.2 487.4C730.2 482.8 725.4 479.8 723.8 475.2C722 471 723.4 466.2 724.4 461.6C725.2 457.2 725 451.6 721.4 448.8C720 447.6 718 447 716.2 446.8C707.6 445 698.2 447.4 691.2 452.8C688 455.4 685.2 458.6 681.6 461C680.2 462 678.6 462.6 677 463.2C678.4 472.8 677.6 483 677.8 492.8C677.8 494.4 677.8 496 678.6 497.4C680.8 501.8 689 502.8 688.6 507.8C688.4 509.2 687.4 510.4 686.8 511.6C685.4 514.4 684.8 517.8 686.4 520.4C688 523.2 691.8 524.6 694.2 522.8C696 521.6 696.8 519.4 698.8 518.4C700.6 517.2 703 517.8 705 518.4C706.6 518.8 708.4 519.4 709.6 520.4C712 519.4 714.6 518.6 717 517.2C724.4 512.6 727.4 503.6 730.2 495.4Z"  stroke="#161616" stroke-width="1.5" stroke-linecap="round" stroke-linejoin="round"/>
<path d="M816.2 663.4C822.4 660.6 830.8 657.4 835.4 662.6C837.4 664.8 838.2 668.4 840.8 669.8C843 671.2 845.6 670.8 848 671C855.2 671.6 860.4 677.8 864.8 683.6C869.2 683.2 869.2 677.2 871.6 673.6C874.2 669.8 879.2 669.2 883.6 668.4C888 667.6 893 665.4 893.8 661C894.2 658.2 892.4 654.8 894 652.4C896.2 649 901.6 651 905.4 650C913.2 648.4 914.2 635.8 921.8 633.6C927.2 632 934.6 636 937.6 631.4C938.6 630 938.8 628.2 939.6 626.8C942 622.6 948.4 623.2 953 622C960 620.2 964.6 612.2 962.8 605.4C961.8 601.4 959.6 596.2 963.2 594.2C966.4 597 970 600 974.2 600.6C982.4 601.8 983.8 593.2 986.2 587.6C986.6 586.8 992.4 565.6 987.4 568C996 564 999.8 553.4 998.2 544C997 537.8 994 531 996.8 525.2C998.4 522.4 1001 520.4 1003.2 518C1008.6 511.8 1010 502.4 1006.8 494.8C1005.2 491.2 1002.8 488.2 1001.4 484.6C999.8 481 999.8 476.4 1002.4 473.6C1006 470 1013 470.8 1015.6 466.4C1018.2 462.2 1014.4 456.8 1009.8 454.8C1003.8 452 997 452.6 990.4 452.4C984 452 980 451.6 975.8 446.6C972 442.4 968.2 438 963.2 435.2C958.4 432.4 952.2 431 946.8 433.4C943.4 434.8 936.6 441.2 933.8 436C932.4 433 939 419.2 940.2 415.8C940.8 414 941.4 411.8 940.6 410C939.8 408 937.6 406.8 935.6 406.6C933.4 406.4 931.4 407 929.2 407.6C924 402 936.6 391.4 936.4 384.6C936 378.4 931 372.8 932.6 366.8C937.133 363.867 941.733 360.933 946.4 358C951.6 354.8 957 351 958.4 345.2C960.2 337.2 952.6 329.4 944.4 328.2C943 328 941.6 328 940.6 327.2C937.4 324.6 941.4 319.4 940.4 315.4C939.4 311.8 935.2 310.4 931.6 310.8C928 311 924.4 312.2 920.8 311.4C915.8 310.2 912.4 305 911.6 299.8C910.8 294.6 911.8 289.4 912.4 284.2C912.4 282.6 912.6 280.8 911.8 279.4C910.6 276.6 906.8 275.8 903.8 276.6C901 277.6 898.6 279.8 896.4 282C896.2 279.8 895.8 277.4 894.6 275.6C893.4 273.8 890.8 272.6 888.8 273.6C885.4 275.2 885.6 282 881.6 282C880.6 282 879.8 281.4 879 281C875.533 278.867 872.067 276.8 868.6 274.8C867.6 274 866.4 273.2 865.8 272C865 270.4 865.4 268.4 866 266.8C867.2 262.933 868.4 259.067 869.6 255.2C866.2 253.4 862.4 256.4 860 259.2C857.4 262.2 854.6 265.6 850.8 265C844.4 264 843.8 252.8 837.4 252C831.6 258.8 843.8 273.8 831.2 275.2C828 275.4 824.6 273.8 822.4 271.4C818.4 267.2 817 261 812.2 257.2C809.2 254.8 803.8 254.8 802.6 250.4C801.6 246.2 801 242.6 799.2 238.6C798.4 236.4 797 234.2 795.4 232.6C792.867 234.733 790.4 236.8 788 238.8C785.2 241.2 781.8 243.6 779.8 246.6C779.4 247 779 247.8 778.8 248.4C778.6 249.4 778.8 250.4 779 251.4C779.8 255.6 780 259.8 779.6 263.8C775.4 267.2 771.6 269.2 767.6 272.6C763.6 275.6 759.8 278.8 757.2 283C755 287 754.2 291.6 752.8 295.8C749.6 305.6 743 314.4 734.2 319.6C725 325 714.2 326.6 703.8 328C703.6 337.4 703.8 346.8 703.6 356C703.6 358 703.6 360 704.8 361.4C706.6 363.4 710.4 364.6 709.6 367.2C708.8 369 706.2 368.8 704.6 370C703 371.2 702.8 373.4 702.8 375.4C702.667 389.133 702.533 402.867 702.4 416.6C702.4 418.2 702.4 420 703.4 421.4C704.4 422.8 706.4 423.4 708.2 424C714.4 426.4 719.8 431.4 722.6 437.4C716.2 436.4 710.8 432.4 705.6 428.4C703.2 426.6 701 424.8 699.8 422.2C698.6 419.8 698.6 417 698.4 414.4C698.133 407.467 697.267 400.6 695.8 393.8C695.4 391.8 694.2 389.4 692.2 389.6C691.2 390 690.4 391 689.6 391.8C685 397 676.8 395 669.8 394.2C668.6 394.2 667.2 394 666.2 394.8C664.8 395.8 664.4 397.6 664.2 399.4C662.8 413 661.6 427.4 667.4 439.8C669.2 443.6 671.6 447 673.4 450.8C675.2 454.6 676.2 458.8 677 463.2C678.6 462.6 680.2 462 681.6 461C685.2 458.6 688 455.4 691.2 452.8C698.2 447.4 707.6 445 716.2 446.8C718 447 720 447.6 721.4 448.8C725 451.6 725.2 457.2 724.4 461.6C723.4 466.2 722 471 723.8 475.2C725.4 479.8 730.2 482.8 731.2 487.4C731.8 490 731 492.8 730.2 495.4C727.4 503.6 724.4 512.6 717 517.2C714.6 518.6 712 519.4 709.6 520.4C710.2 521.2 710.8 522 710.8 523C710.8 525.2 708.6 526.8 706.6 527.6C704.4 528.4 702.2 529 700.8 530.8C699 533.6 701.2 537.8 704.2 539.4C707.4 540.8 711 540.8 714.4 541.6C718 542.4 721.4 544 724.4 546.4C725 547 725.8 547.6 726 548.6C726.4 551 723.2 552.2 720.8 552.6C716.533 553 712.333 553.4 708.2 553.8C705.6 554.2 701.6 553 702.4 550.6C701 548 697 550.2 695.4 552.6C693.8 555 694.2 558 694.2 560.8C694.4 563.6 694.4 566.8 692.6 568.8C688 568 692.2 558.6 687.8 556.8C686.2 556 684 557 682.4 556.4C680.6 555.6 680 553.4 678.8 552C676.6 549.2 671.8 549.4 669.2 552C666.6 554.4 666 558.4 666.6 562C667 564.4 667.8 567.2 666.6 569.2C665.8 570.6 664.6 571.4 663.6 572.4C661.8 574.8 662.4 578.6 664.8 580.2C667.2 582 670.8 581.2 672.4 578.8C673 578.2 673.4 577.2 674 576.8C675.6 576 677.6 577.8 679.2 577.4C681.6 577 681.8 573.6 683.8 572.4C686 570.8 689 573.2 690.6 575.6C693.2 579.8 694.8 584.6 695 589.6C695.2 592.4 696.2 596.4 699 596C701.4 595.8 703.4 592.4 705.2 593.8C706.6 595.2 704.8 597.4 703.4 598.8C700.4 602 700.2 607.4 702.8 611C703.4 611.6 704 612.2 704.8 612.4C706 612.6 707.2 611.4 708 610.2C711 606.2 712.8 601.2 715.6 597C718.6 592.8 723.2 589 728.2 589.4C733.4 589.8 737.6 596.2 734.6 600.4C732.2 603.6 727.2 603.8 724.8 607.2C721.2 612.4 728 620.2 725 626C723.2 629 718.6 630.8 718.8 634.4C719 638.4 724.4 639.4 728.2 638.8C732.2 638.4 737.4 638.2 738.6 642C736 643.8 733 645 729.8 645.6C728.2 647.6 731 650.4 733.6 650.2C736 650.2 738.8 649 741 650.2C743.6 651.6 743.8 655.2 745 658C746.2 661.2 749 663.4 751.6 665.6C755.4 668.8 759.6 672 764.6 673.2C769.4 674.4 775.4 672.6 777.6 668C779.4 664.2 778.8 658.2 782.8 656.8C785 661.8 784.2 667.8 781.4 672.2C786 671.4 791.2 671.4 795 670.4C802.2 668.8 809.4 666.4 816.2 663.4Z"  stroke="#161616" stroke-width="1.5" stroke-linecap="round" stroke-linejoin="round"/>
<path d="M1001.4 601.2C1008.8 604.4 1020.6 599.4 1028.2 598C1032.6 597 1037.4 596 1040.6 592.8C1044.4 588.6 1044.8 582.4 1045.8 577C1047 571.4 1050.2 565.2 1055.8 564.8C1061.8 564.2 1065.8 570.4 1068.8 575.8C1071.8 581 1076.8 586.8 1082.6 585C1086.6 583.8 1088.6 579.6 1091 576.2C1093.6 573 1098.6 570.4 1101.6 573.2C1102.6 574.2 1103.4 575.8 1104.8 576.2C1107.8 577.2 1108.8 572.4 1110.8 570.2C1113.4 567 1118.6 568.4 1121.8 571C1125 573.4 1127.8 577 1131.8 578C1136.8 579.4 1142 576.2 1146.4 573.2C1150.4 574.8 1148.4 581.2 1145.2 584C1141.8 586.8 1137.2 589.4 1137.2 593.8C1137.4 599.4 1145.4 601 1151 599.6C1156.6 598 1163 595.4 1167.6 598.8C1171 601.2 1172.2 606.2 1175.8 608.2C1181.2 611.2 1187.4 606 1193.4 605.8C1202.2 605.2 1208 614.6 1216.2 618.2C1223.4 621.2 1232.2 619.4 1239.2 623C1243.8 625.4 1246.8 629.8 1250.4 633.2C1254 636.8 1259 639.6 1263.8 638.2C1269.4 632.4 1272 624 1271 616C1270.6 613 1269.6 609.8 1271 607C1272.6 603.8 1276.6 602.6 1280 602.8C1288 603.4 1295 609.8 1296.4 617.6C1296.8 620.6 1296.8 623.8 1298.8 625.8C1303.4 630.4 1310.2 623.6 1316 621C1326 616.8 1337.6 625.4 1348 622.2C1354.2 620.4 1359.4 614.4 1365.8 614.8C1377 615.4 1381.6 633.4 1392.8 632.2C1400.2 631.4 1403.2 622.6 1406.6 615.8C1411.2 607 1419.4 600.2 1429 597C1428.73 596.733 1428.53 596.467 1428.4 596.2C1422 586.2 1430.8 571.4 1424.4 561.2C1423.2 559.2 1421.6 557.6 1420.6 555.6C1419.8 553.8 1419.6 551.6 1418.6 549.8C1416.8 546 1412.4 544.4 1409.4 541.4C1406.8 539 1405 535.6 1404.4 532C1403.8 527.6 1404.6 522.6 1401.8 519.4C1400 517 1397 516.2 1394.4 514.8C1390.2 512.6 1387 508.6 1385.8 504C1385.2 502.4 1385 500.4 1384.4 498.8C1382.6 494.2 1378.2 491.4 1374.8 488C1368.2 481.4 1364.6 472.2 1365.2 463C1365.2 461.2 1365.6 459.2 1365.2 457.4C1364.4 453.6 1360.8 451.2 1357.6 449C1353.6 446.4 1351.8 443.2 1349.2 439.2C1347.8 437 1346.6 434.6 1347 432C1347.4 430.6 1348.2 429.2 1348.6 427.6C1350 422.8 1346 419.8 1343.2 416.8C1339.8 413 1337.2 408.8 1333.4 405.4C1330 402.4 1326.4 400 1323.2 396.8C1314.4 388.4 1309.6 376.6 1301.2 367.6C1297 363 1291.4 358.6 1290.2 352.4C1289.8 350.2 1290 348 1289.2 346.2C1288.6 344.4 1287.2 342.8 1286 341.4C1275 329 1264.8 316.2 1254.4 303.2C1251 299.2 1247.6 295 1246 290C1244.6 286.2 1244.2 282 1242 278.8C1240 275.4 1236.6 273.4 1233.8 270.8C1225 263.2 1228 252 1224.8 242.2C1223 237 1220 232.6 1217.2 228C1208.4 213 1203.8 195.6 1194.8 180.8C1191.8 175.8 1188.4 171 1186.8 165.6C1185.6 161.6 1185.4 157.6 1183.8 153.8C1182 149.2 1178.4 145.6 1176.4 141.2C1173.6 134.8 1174.2 127.2 1170.8 121C1168.4 116.8 1164.2 113.4 1162.6 108.8C1162 106.8 1161.8 104.6 1160.2 103.2C1158.4 101.8 1155.8 102 1153.8 103.2C1148.6 106.2 1147.2 113.4 1147.6 119.4C1148 125.6 1149.4 132 1147.2 137.6C1143.4 147.6 1143.4 157.6 1137.2 166.2C1130.8 174.8 1122.6 181.8 1114.2 188.2C1111 190.6 1107.8 193 1104.2 194.8C1099.4 197 1094 198 1089.4 201.2C1087.6 202.4 1085.8 204 1083.8 205.2C1081.2 206.6 1078.4 207 1075.6 207.2C1067.2 208 1058.8 207.8 1050.4 206.4C1045.2 205.4 1040 204.2 1034.8 204.8C1030.6 205.4 1026.8 207.2 1023 208.2C1019 209.4 1014.8 210 1011 208.4C1009 207.4 1007.4 206 1005.4 205C1001 202.6 995.6 203 990.6 203.4C986.733 203.667 982.867 204 979 204.4C968.6 203.2 958.8 203 948.4 202C944.6 201.6 940.4 201.2 937 202.8C932.4 205 929 210.4 924 209.4C922.4 209.2 921 208.2 919.6 207.2C909.2 200.6 895.8 199 884.2 202.8C881.8 203.6 879.6 204.6 877.2 204.8C869.6 205.8 861.6 200 854.6 203C850.6 204.8 848 209 843.8 209.8C840 210.6 836.6 208.6 832.8 208.2C825.8 207.4 819.4 212.2 814 216.8C807.733 222.133 801.533 227.4 795.4 232.6C797 234.2 798.4 236.4 799.2 238.6C801 242.6 801.6 246.2 802.6 250.4C803.8 254.8 809.2 254.8 812.2 257.2C817 261 818.4 267.2 822.4 271.4C824.6 273.8 828 275.4 831.2 275.2C843.8 273.8 831.6 258.8 837.4 252C843.8 252.8 844.4 264 850.8 265C854.6 265.6 857.4 262.2 860 259.2C862.4 256.4 866.2 253.4 869.6 255.2C868.4 259.067 867.2 262.933 866 266.8C865.4 268.4 865 270.4 865.8 272C866.4 273.2 867.6 274 868.6 274.8C872.067 276.8 875.533 278.867 879 281C879.8 281.4 880.6 282 881.6 282C885.6 282 885.4 275.2 888.8 273.6C890.8 272.6 893.4 273.8 894.6 275.6C895.8 277.4 896.2 279.8 896.4 282C898.6 279.8 901 277.6 903.8 276.6C906.8 275.8 910.6 276.6 911.8 279.4C912.6 280.8 912.4 282.6 912.4 284.2C911.8 289.4 910.8 294.6 911.6 299.8C912.4 305 915.8 310.2 920.8 311.4C924.4 312.2 928 311 931.6 310.8C935.2 310.4 939.4 311.8 940.4 315.4C941.4 319.4 937.4 324.6 940.6 327.2C941.6 328 943 328 944.4 328.2C952.6 329.4 960.2 337.2 958.4 345.2C957 351 951.6 354.8 946.4 358C941.733 360.933 937.133 363.867 932.6 366.8C931 372.8 936 378.4 936.4 384.6C936.6 391.4 924 402 929.2 407.6C931.4 407 933.4 406.4 935.6 406.6C937.6 406.8 939.8 408 940.6 410C941.4 411.8 940.8 414 940.2 415.8C939 419.2 932.4 433 933.8 436C936.6 441.2 943.4 434.8 946.8 433.4C952.2 431 958.4 432.4 963.2 435.2C968.2 438 972 442.4 975.8 446.6C980 451.6 984 452 990.4 452.4C997 452.6 1003.8 452 1009.8 454.8C1014.4 456.8 1018.2 462.2 1015.6 466.4C1013 470.8 1006 470 1002.4 473.6C999.8 476.4 999.8 481 1001.4 484.6C1002.8 488.2 1005.2 491.2 1006.8 494.8C1010 502.4 1008.6 511.8 1003.2 518C1001 520.4 998.4 522.4 996.8 525.2C994 531 997 537.8 998.2 544C999.8 553.4 996 564 987.4 568C990 567 989.8 571.4 989 576.4C993.2 584 994 598 1001.4 601.2Z"  stroke="#161616" stroke-width="1.5" stroke-linecap="round" stroke-linejoin="round"/>
<path d="M528.6 1189.4C530.4 1191.8 529.4 1194.6 526.6 1195.6C523.8 1196.6 521.4 1194.6 520 1192.4C519.4 1191.4 519.2 1190 519.8 1189C520.4 1187.8 521.6 1187.4 522.8 1187.2C524.8 1186.8 527.2 1187.8 528.6 1189.4ZM548.8 1279.2C549.4 1282.4 548.6 1284.4 546.4 1287.4C546 1288 545.6 1288.6 545 1288.8C544.2 1289.2 543.4 1289.2 542.4 1289C541 1288.8 539.6 1288.6 538.4 1288C537.2 1287.2 536 1286 536 1284.6C535.8 1284.2 536 1283.4 535.8 1283C535.2 1282.2 534.2 1282.2 533.4 1282.2C532.6 1282.4 531.8 1282.8 531 1282.8C529.2 1282.6 528 1280.6 528.2 1279C528.4 1277.2 529.4 1275.6 530.4 1274.4C532.8 1271.4 535.4 1271.8 538 1270C540.4 1268.2 541.2 1264.4 543.4 1262.2C545.8 1259.6 549.4 1258.2 552.6 1259.2C553 1259.2 553.4 1259.4 553.6 1259.8C554 1260.2 554 1261 553.8 1261.6C553.2 1264.6 551.4 1267 549.8 1269.4C547.4 1273.2 547.6 1274.4 548.6 1278C548.733 1278.4 548.8 1278.8 548.8 1279.2ZM562.2 1292.6C561.2 1292.2 560.2 1291.6 559.2 1291.4C557.4 1291.2 555.4 1292.6 553.8 1292C552.4 1291.4 551.6 1289.6 552.2 1288.2C552.6 1286.8 554 1285.8 555.4 1285.4C557 1285 558.4 1285 560 1285.2C562.6 1285.4 565.6 1285.8 567.6 1287.8C569.8 1289.8 570.2 1294 566.2 1294C564.8 1294 563.4 1293.4 562.2 1292.6ZM589 1303.6C593.4 1304.8 592.4 1310.2 588.4 1310.8C580.8 1312.2 583.6 1302 589 1303.6ZM550.8 1304C549 1303.8 546.6 1303 546.2 1301.2C546 1300 546.8 1298.8 547.8 1298C548.8 1297.2 550 1297 551.2 1297C556.2 1296.4 569.6 1301.6 563.6 1308.8C562 1310.8 559.2 1310.6 557.4 1309C554.6 1306.4 555.6 1304.6 550.8 1304ZM504.2 1400.2C503.6 1400.6 503 1401 501.8 1401.4C500.4 1401.8 498.8 1401.2 497.2 1402.2C495.8 1403.2 495.2 1405.2 495.2 1407C495 1409.4 495.4 1412.4 497.6 1413.4C498.4 1413.6 499.4 1413.6 500.4 1413.6C502.667 1413.47 505 1413.27 507.4 1413C508.4 1413 509.4 1413 510.4 1412.4C511.8 1411.6 512.4 1410 513 1408.6C514 1405.8 516.2 1399.8 514.2 1397.2C511.8 1394.2 507.8 1396.4 505.8 1398.6C505 1399.2 504.6 1399.8 504.2 1400.2ZM525.8 1444C525 1444 524.2 1444 523.4 1443.8C522.2 1443.4 521.4 1442.2 520.8 1441C518.6 1436.4 517.6 1427.6 522.2 1424.2C522.6 1424 523 1423.6 523.4 1423.6C524.8 1423.4 525.6 1425 525.6 1426.4C525.6 1428.6 524.6 1430.6 526.2 1432.4C527.4 1434 529.6 1433.6 530.8 1435C534.2 1439 529.8 1443.4 525.8 1444ZM537.2 1436C537.6 1438.8 537.4 1441.6 536.6 1444.2C536.2 1445.2 535.8 1446.2 535 1446.4C534 1447 533 1446.4 532 1446.6C530 1447 529.2 1449.2 529.4 1451C529.4 1452.6 530.4 1454.4 532.2 1454.4C534.2 1454.2 534.8 1451.2 536.4 1449.8C538 1448.6 540.2 1449 541.8 1448.2C543 1447.6 543.8 1446.4 544.4 1445.4C546 1442.4 546.6 1438.8 545.8 1435.6C545.6 1434 544.6 1432 543 1431.6C541.8 1431.4 540.4 1431.8 539.2 1431.4C536.8 1430 537.4 1421 533.4 1425.6C529 1430.4 536.8 1432.4 537.2 1436ZM554.4 1416.6C553.8 1417.6 552.4 1417.8 551.4 1418.4C550 1419.4 549.6 1421.2 549.8 1423C549.8 1425 550.8 1427.2 552.8 1427.4C554 1427.4 555 1426.6 556.2 1426C557.2 1425.2 558.6 1424.8 559.6 1425.4C560.2 1425.8 560.6 1426.8 561.2 1427.4C562.2 1428 563.8 1427.4 564.6 1426.6C565.8 1425 565.8 1422.6 565.8 1420.6C565.8 1420 565.8 1419.2 565.4 1418.6C564.8 1417.2 560.6 1413 558.8 1412.8C555.8 1412.2 555.6 1414.6 554.4 1416.6ZM537.2 1344.2C536.8 1345.2 536.6 1346.2 536 1347C534.6 1349 531.8 1349.4 529.4 1349.2C527.8 1349 526.2 1348.4 525.4 1347C524.8 1345.8 525.4 1344.4 525.2 1343C525 1341.6 524.2 1340.6 523.6 1339.4C522.8 1338.2 522.4 1336.8 523 1335.6C523.6 1334.4 525 1334 526.4 1333.8C527.6 1333.6 529 1333.4 530 1332.8C531.6 1332 532.2 1330.4 533 1328.8C533.8 1327.4 535 1325.8 536.6 1325.8C538.2 1325.8 539.6 1327.4 540 1329C541 1333.6 538.2 1339.8 537.2 1344.2ZM558.6 1343.2C562.4 1345 558 1350.4 555.8 1351.2C551.8 1352.6 546.4 1348.4 547.8 1344.2C548.4 1341.8 551.2 1340.4 553.4 1341.2C554.4 1341.6 555.4 1342.4 556.4 1342.8C557.2 1343 558 1342.8 558.6 1343.2ZM544.2 1353.8C542.8 1354.2 541.4 1354 540.4 1353.4C539.8 1353 539.2 1352.4 538.6 1352.2C537.8 1352 536.8 1352.4 536.2 1353.2C535.6 1353.8 535.2 1354.6 534.8 1355.6C534 1357.6 533.4 1360.2 535.2 1361.4C536.4 1362.4 542 1361.8 543.6 1361.8C550.2 1361.4 549.4 1352.2 544.2 1353.8ZM549 1376.4C548.4 1376.8 547.8 1377.2 547 1377.6C546.4 1377.8 545.4 1378 545 1377.4C544.6 1377 544.6 1376.6 544.4 1376.2C544.4 1375.4 544.2 1374.4 544.6 1373.8C545.4 1372.2 547.6 1372.6 549.4 1372.2C551.2 1371.6 552.4 1370 553.8 1368.8C562 1360.4 565.4 1377.2 557.8 1378.8C554.8 1379.2 552.4 1375.4 549 1376.4ZM540.2 1392C540.8 1393.6 542 1394.8 543.6 1395.2C546.8 1395.8 550.2 1392.6 553 1394.2C555.2 1395.6 555.6 1399.2 558 1400C564.4 1402 564.4 1391.8 562.8 1388.2C561 1383.8 559 1385.4 555 1384.6C551.8 1383.8 549 1381.6 545.4 1381.8C540.6 1382.2 538.4 1387.6 540.2 1392ZM584 1327.2C585 1328.2 585.6 1329.8 585 1331C584.2 1332.8 581.6 1333.2 579.6 1333C577.2 1332.6 574.6 1331.6 573.4 1329.4C572.6 1328.2 572 1322.4 574.8 1323C576.6 1323.2 576.4 1325.6 577.8 1326.2C579.8 1327.2 582 1325.6 584 1327.2ZM595.2 1319.4C594.6 1317.4 593.4 1315.6 591.6 1315.4C590.4 1315.4 589.2 1316 588.8 1317.2C588.4 1318.4 588.8 1319.8 589.8 1320.4C592.2 1322 592.6 1330.2 595 1324.6C595.6 1323.4 595.6 1321.2 595.2 1319.4ZM600 1332.6C598.8 1333 597.6 1333.8 597 1335.2C596.8 1336.2 597 1337.4 597 1338.4C596.8 1341 595.2 1343.2 593.2 1344.6C591.2 1346 588.8 1346.6 586.4 1347.2C584.4 1347.6 582.4 1348 581 1349.2C579.4 1350.4 578.4 1352.6 579.4 1354.2C580 1355.4 581.4 1356 582.8 1356.2C584.2 1356.2 585.6 1355.6 587 1355.2C590.067 1354.13 593.2 1353.07 596.4 1352C601.2 1350.4 606.6 1348.2 608.6 1343.4C610.8 1337.8 606.4 1330.8 600 1332.6ZM515.4 1519.8C515 1520.2 514.733 1520.53 514.6 1520.8C514.2 1522.2 515.2 1523.4 516.4 1524C518 1524.6 519.8 1524.4 521.6 1524.6C523.4 1524.8 525.2 1525.4 526 1527C526.8 1529 525.4 1531 525.6 1533.2C525.6 1535.2 527.2 1537.2 529.2 1537.6C530.2 1537.8 531.4 1537.8 532.6 1537.6C535.133 1537.07 537.6 1536.33 540 1535.4C541.8 1534.6 543.8 1533.6 544.2 1531.6C544.6 1530 543.8 1528.2 542.2 1527.4C540.8 1526.4 539.2 1526.2 537.4 1526.2C530.8 1526 530.8 1523.2 526.4 1519.6C523.2 1517.2 518.2 1517 515.4 1519.8ZM597.2 1287.4C594 1288.8 590.4 1288.4 587 1287.6C585 1290 586.8 1294.6 584 1295.6C582 1296.4 580.2 1293.8 579.8 1291.6C579.6 1289.6 579.4 1287 577.6 1285.8C576.2 1285 574.4 1285.4 572.8 1285.2C570.4 1285 568.2 1283.6 566.2 1282.4C564.2 1281 562 1279.6 561.4 1277.4C560.4 1274.2 563.2 1270.6 566.6 1269.8C569.8 1269 573.4 1270 576.4 1271.6C577.8 1272.2 579.2 1273 580.6 1272.6C582.8 1272.2 583.8 1269.6 583.8 1267.4C584 1265.2 583.6 1262.8 585 1261C586.2 1259.4 588.2 1258.8 590.2 1258.2C592.4 1257.6 594.8 1257.2 596.6 1258.2C597.6 1258.6 598.4 1259.6 599.6 1259.8C602 1260.4 604.2 1257.2 606.8 1257.6C608.8 1258 609.6 1260.2 609.6 1262.4C609.4 1264.4 608.8 1266.4 609.2 1268.2C609.8 1270.2 612.4 1274.6 609.6 1276.2C607.6 1277.2 606.6 1274.8 604.8 1275C601.4 1275.4 603 1278 602.6 1280.4C602.2 1283.6 600.2 1286.2 597.2 1287.4ZM614.6 1358.8C615 1356.2 615.2 1353.8 615.4 1353.2C616 1351.4 616.2 1349.4 615.2 1348C611 1341.4 606.6 1356 606.4 1358.2C606.2 1360.4 606.4 1362.8 607.6 1364.4C611.8 1370.2 613.6 1364 614.6 1358.8ZM510.2 1380.4C507.6 1382 504.2 1381.4 501.4 1382.4C500.8 1382.8 500 1383 499.8 1383.6C499.4 1384.2 499.4 1384.8 499.4 1385.2C499.2 1387.2 499.6 1389 499.2 1391C499 1392.8 498.2 1394.8 496.4 1395.6C494.6 1396.6 492.4 1396 491 1394.8C489.4 1393.6 488.6 1391.8 488 1390C487.2 1387.6 487 1385 487.6 1382.6C488.4 1380.4 490.2 1378.2 492.6 1377.6C495.2 1377.2 498 1378.2 500.2 1377.2C502.4 1376.2 503.4 1373.8 504.8 1372C506.2 1370 508 1368.4 510 1367.4C510.6 1367 511.4 1366.6 512.2 1366.8C516.8 1367.8 512.6 1378.8 510.2 1380.4ZM599.4 1377.6C600 1373 607.6 1374.6 606.8 1378.8C606.2 1382.6 598.8 1381.8 599.4 1377.6ZM598.2 1447.2C596.6 1442.6 590.8 1439.6 586.2 1441.2C585.4 1441.4 584.6 1441.8 584 1442.6C582.4 1445 586 1448 586 1451C586 1453 584.4 1454.6 582.6 1455.4C580.8 1456.2 578.8 1456.4 577 1457.2C574.4 1458.2 572.2 1460 570.6 1462.4C569.8 1464 569.2 1465.8 568 1467.2C566.6 1468.8 564.4 1469.8 562.6 1470.8C556.4 1474.2 550.8 1478.6 546.4 1484.2C544.4 1486.6 542.8 1489.2 542.2 1492.2C540.8 1498.6 545.4 1505.6 551.8 1506.8C554.2 1507.2 557.2 1507 559 1508.8C559.6 1509.4 560 1510.2 560.4 1511C563.2 1514.4 569 1513.2 571.8 1509.8C572.6 1508.8 573.4 1507.8 574.6 1507.4C576.4 1506.6 579 1508.2 580.4 1506.6C583.6 1507.6 586 1506 589.2 1505C590 1504.6 591 1504.4 591.8 1505C593.2 1505.8 593 1508 594.2 1509.2C595.2 1510 596.8 1509.6 598 1509C599.4 1508.6 601 1508 601.6 1506.4C601.8 1505.6 601.6 1504.6 601.6 1503.6C601.4 1501.8 602.2 1499.8 603.6 1498.4C605.4 1496.6 609.2 1497.8 609.8 1495.2C609.8 1494.4 609.8 1493.8 609.8 1493C610.2 1490.6 613.6 1490.2 615.2 1488.4C616.8 1486.8 617 1484.4 616.6 1482.4C616.2 1480.2 615.6 1478.2 615.8 1476C616 1473.8 617.2 1471.8 618.4 1469.8C619.4 1467.8 620.4 1465.6 620.2 1463.4C620 1461 618.2 1458.8 615.8 1459C615.4 1459 615 1459.2 614.6 1459C613.6 1459 613.2 1457.8 612.8 1457C610.2 1451.2 604.2 1449.4 598.2 1447.2ZM606.8 1640.2C604.6 1638.8 602.2 1638.2 599.4 1639C597.8 1639.6 596 1641 596.4 1642.8C597.2 1645.8 602.6 1644.8 603.6 1647.6C604 1648.6 603.6 1650 604.2 1651C604.6 1651.8 605.8 1652 606.8 1651.8C607.8 1651.8 608.6 1651.2 609.4 1650.6C610.8 1649.6 612.4 1648.2 612.2 1646.4C612 1645.8 611.8 1645.4 611.4 1644.8C610.2 1643 608.6 1641.4 606.8 1640.2ZM677.8 1566.2C680 1564.4 682.2 1568 684.2 1564C685.8 1561.2 684.6 1557.2 682.4 1555.2C679.8 1552.6 675.6 1552 672.2 1553C670 1553.8 667.8 1555.2 667 1557.2C666.4 1558.6 666.4 1560.2 666.6 1561.6C666.8 1564.4 667.2 1567.6 669.6 1569.4C671.8 1571.2 675.2 1572 676.4 1568.6C676.6 1567.8 676.8 1567 677.4 1566.4C677.533 1566.27 677.667 1566.2 677.8 1566.2ZM664 1587.6C661.8 1588 659.6 1587.4 657.4 1586.8C656.4 1586.6 655.2 1586.2 654.6 1585.4C653.4 1584.4 653.2 1582.6 653.4 1581.2C653.6 1579.4 654.4 1577.6 655.8 1576.4C657.2 1575.2 659.2 1574.8 660.8 1575.8C661 1574.4 661.2 1572.8 662.4 1572C663.8 1571.4 665.4 1572 666.8 1572.8C668.4 1573.8 670 1575.2 670.8 1576.8C673.8 1582 669 1586.8 664 1587.6ZM865.8 1618.6C864.6 1616.2 864.4 1613.4 864.8 1610.6C865 1609.4 865.8 1608 867 1608.2C868 1608.4 868.2 1610.2 869.2 1610.6C870.8 1611.6 872.4 1609.2 874.2 1609C875.4 1608.8 876.4 1609.6 877.2 1610.6C878.8 1612.8 878.8 1615.8 877.8 1618.2C875.2 1624.2 868.8 1624.4 865.8 1618.6ZM860.6 1552C859.8 1552.8 858.6 1553 858 1554C857.2 1555.2 857.8 1557.6 856.8 1558.6C853.8 1561.4 850 1557.8 849.6 1554.6C849.2 1549.4 857.6 1542 861.2 1548.4C861.8 1549.2 861.8 1550.4 861.4 1551.2C861.133 1551.6 860.867 1551.87 860.6 1552ZM706.4 1529.8C700.6 1526.8 694.2 1523.4 692 1517.4C691.2 1515.2 691 1512.8 690.8 1510.4C690.6 1507.2 690.4 1503.8 692 1501C693.6 1498.6 696.6 1497.2 699.6 1496.8C702.6 1496.6 705.4 1497.4 708.2 1498.4C711 1499.2 714 1500.6 715.4 1503.4C717.2 1507.4 714.8 1512.2 716 1516.4C716.6 1518.6 718.2 1520.4 719.8 1522C722.2 1524.6 726.8 1530.8 722.4 1534C718.4 1536.8 710 1531.4 706.4 1529.8ZM725.8 1520C725 1521.4 726.8 1523 728.4 1523.6C731.2 1524.6 734.2 1524.8 737.2 1524.4C738.6 1524 739.8 1523.6 741.2 1523.6C742.6 1523.6 744.2 1524.4 744.6 1525.8C745.2 1527.2 744.2 1528.8 745 1530.2C745.4 1531.2 746.8 1531.6 747.8 1531.6C749 1531.4 750 1530.8 751 1530.2C751.8 1529.8 752.6 1529.4 753 1528.6C754 1527 753.2 1524.6 754.6 1523.4C756.2 1522.2 758.8 1523.2 760 1521.8C761 1520.4 760 1518.4 758.4 1517.8C757.8 1517.4 757 1517.4 756.4 1516.8C756 1516.4 755.8 1516 755.4 1515.4C753.4 1512.4 748.2 1512.2 746 1515.2C745.4 1516 745 1516.8 744.4 1517.6C740 1522.2 729.2 1513.2 725.8 1520ZM741.6 1506.8C739.6 1507.2 737.4 1506.4 735.4 1505.8C732 1505 728.4 1504.8 724.8 1505.2C724 1505.4 723.2 1505.4 722.4 1505.2C721.2 1504.8 720.6 1503.2 720.6 1502C720.6 1500.6 721.2 1499.4 721.8 1498.2C722 1497.6 722.4 1497.2 722.8 1496.8C723.8 1496.2 725.2 1497 726.4 1497C727.8 1496.8 728.8 1495.6 729.4 1494.2C730 1493 730.2 1491.4 731 1490.4C732 1489.2 733.4 1488.4 734.8 1488.4C735.8 1488.4 736.6 1488.6 737.6 1488.6C739 1488.4 740.2 1487.4 741.4 1486.8C742.4 1486 744 1485.4 745.2 1486.2C746.8 1487.2 746.6 1489.6 746.2 1491.4C745.8 1493.2 746 1495.8 747.8 1496.2C748.4 1496.4 748.8 1496.2 749.2 1496.4C754.2 1499.2 743.8 1506.6 741.6 1506.8ZM754 1506C754.2 1506.6 754.4 1507 755 1507.4C756.2 1508.4 758.4 1507.8 759.8 1508.6C761.6 1509.8 761.4 1512.4 763.2 1513.4C764.8 1514.2 766.6 1513 767.8 1511.8C769.2 1510.4 770.4 1508.8 772.2 1508.8C772.8 1508.8 773.6 1509 774.2 1509C775.4 1508.6 776.2 1507.4 776 1506C775.8 1504.8 775 1503.8 774.2 1503C773.4 1502.2 772.4 1501.6 771.4 1501.6C769.8 1501.4 768 1502.8 766.6 1502C765.6 1501.4 765.4 1500.2 764.8 1499.2C761.8 1494 751.6 1500.6 754 1506ZM792.8 1524.8C791 1517.6 778.6 1515.6 777.8 1524.6C777.6 1526.4 777.8 1528.8 779.4 1529.8C782.2 1531.4 785.4 1527.8 788.4 1528.4C789 1528.6 789.6 1528.8 790.2 1528.8C792 1529 793.2 1526.6 792.8 1524.8ZM809.4 1515.6C808.6 1510.4 803.4 1513 800 1511.2C799 1510.6 799.2 1508.8 798 1508C797 1507.2 795.6 1507.4 794.4 1507.8C792.4 1509 791.2 1511.4 791.8 1513.6C792.4 1516 794.8 1517.6 797 1517.4C798.2 1517.4 799.2 1516.8 800.2 1516.8C801.4 1516.6 802.6 1516.8 803.2 1517.8C804 1519 803.4 1520.6 804.4 1521.4C805.4 1522.2 806.6 1521.6 807.4 1520.8C808.8 1519.4 809.8 1517.4 809.4 1515.6ZM805 1480.4C809.2 1482 809.2 1487 808.2 1490.6C807.8 1492 805.6 1494.4 804 1493.2C803.4 1492.8 803.2 1492 802.8 1491.4C802.2 1489.8 800.8 1488.6 799.4 1488.2C798.8 1488 798.4 1488 798 1487.6C796.4 1486.8 796.6 1484.4 797.6 1483C799.2 1480.6 802.4 1479.4 805 1480.4ZM845.2 1488.6C841.2 1489.8 836.8 1487.2 832.8 1488.2C830.4 1488.8 828.4 1490.6 826 1490.2C824.8 1490 823.8 1489.2 822.8 1488.6C819 1485.8 815.4 1482 815.2 1477.4C815.2 1476.8 815.4 1476.4 815.6 1476C816.6 1474.4 819.2 1476 820.8 1475.2C822 1474.6 822.2 1473 822.6 1472C823.8 1469.8 826.6 1469 828.6 1470.2C830 1471 831 1472.4 832.4 1472.6C833.6 1472.6 834.8 1471.8 835.8 1471C851.2 1459.6 858 1484.8 845.2 1488.6ZM926.6 1479.4C933 1480.8 939 1484.8 937.6 1491.2C937.2 1493.4 935.4 1495.4 933.2 1496.4C931.2 1497.4 928.8 1497.8 926.4 1497.8C924.4 1497.8 922 1497.6 921 1495.8C920.4 1495.2 920.4 1494.4 920.2 1493.4C920 1490.6 920.2 1488 918.2 1485.8C917.2 1484.8 914.4 1483.8 914.2 1482.4C913.4 1479 920.2 1478 926.6 1479.4ZM912.2 1455.2C912.8 1454.4 914 1453.6 915 1454C915.6 1454.4 916 1454.8 916.2 1455.4C917.2 1457.6 916.8 1460.2 915.6 1462.2C915 1463 914.4 1463.6 914.6 1464.4C914.8 1465.2 915.6 1465.6 916.2 1465.6C917 1465.6 917.6 1465.4 918.2 1465.2C919.8 1464.8 921.467 1464.73 923.2 1465C924.2 1465 925.2 1465.2 926 1465.8C926.8 1466.4 927.2 1467.6 926.6 1468.6C926.2 1469.4 925 1469.8 924 1470C919.6 1470.8 913 1473.2 910.2 1467.8C908.2 1464.2 909.8 1458.2 912.2 1455.2ZM987.8 1463C986.2 1462 984.8 1460.8 984 1459.2C982.6 1456.8 982.6 1453.6 984 1451.4C985.6 1449 988.2 1447.6 991 1447.8C991.8 1447.8 992.6 1448 993.2 1448.4C995.6 1450.2 993.4 1454.6 995.6 1457C996.6 1458.2 998.6 1458.2 1000 1459C1003.2 1460.6 1003.4 1466 1000 1467.4C996.4 1469 990.6 1464.8 987.8 1463ZM1010 1483.8C1011.4 1487 1010.6 1491.4 1008.4 1494C1007.4 1495 1005.2 1495.4 1004.2 1494.2C1003.4 1493.2 1003.6 1490.6 1003.6 1489.2C1003.6 1486.8 1004.2 1484 1006.4 1482.4C1006.8 1482.2 1007.2 1482 1007.8 1482C1008.8 1482 1009.6 1483 1010 1483.8ZM984.2 1337.4C991.8 1337.2 989.2 1345 983.2 1345C979.2 1345 978.2 1339.4 981.6 1337.8C982.4 1337.6 983.4 1337.4 984.2 1337.4ZM983.2 1327.8C983 1329.2 983.4 1330.8 984.8 1331.4C986.4 1332 988.8 1330.4 990.2 1331.6C991 1332.4 991 1333.6 991.6 1334.6C992.6 1335.8 994.8 1335.4 996 1334.4C997 1333.8 998 1332.8 998.2 1331.6C998.6 1330.4 998.2 1329 997.2 1328.4C996.2 1327.6 994.8 1327.8 993.6 1327.8C992.4 1327.8 990.8 1327.4 990.4 1326.2C988.6 1321.4 984 1323.6 983.2 1327.8ZM995.4 1406.8C995.2 1408.6 993.8 1410 992.2 1411C990.4 1412 988.6 1412.6 987.2 1413.8C983.8 1416.6 983 1421.6 982.4 1426C982.2 1428.2 982.4 1431.4 984.6 1432C986.4 1432.6 988.6 1431 990.2 1432.2C991.2 1432.8 991.4 1434.2 991.8 1435.4C992.8 1438.8 995.8 1441.6 999.4 1442C1000.8 1442.4 1002.6 1442.2 1003.6 1441.2C1004.8 1440.2 1005.2 1438.6 1005.4 1437.2C1005.53 1435.33 1005.47 1433.53 1005.2 1431.8C1005 1430.4 1004.6 1428.8 1004.8 1427.4C1005.2 1426.2 1006 1425.2 1006.8 1424.2C1007.8 1422.6 1008.8 1420.8 1009 1418.8C1009.2 1416.8 1008 1414.6 1006.2 1414C1005.2 1413.6 1004 1413.6 1003 1413.2C1001.4 1412.2 996.4 1396.6 995.4 1406.8ZM995.8 1397.2C997 1397.4 998.2 1397 999.2 1397.6C1000.4 1398.4 1000.4 1400.2 1001.4 1401.2C1002.6 1402.2 1004.4 1401.6 1005 1400.4C1005.8 1399.2 1005.4 1397.4 1004.4 1396.4C1003.6 1395.4 1002.2 1394.6 1000.8 1394.2C1000.2 1394 999.4 1393.8 998.8 1393.2C998 1392.6 998 1391.4 997.2 1390.6C994.2 1387.8 990.4 1396.6 995.8 1397.2ZM295.8 1398.6C297.2 1396.6 301.4 1394 304 1395.8C306 1397.4 305.2 1401.4 304.8 1403.4C303.8 1407.2 301 1415.4 296.4 1410.8C295.2 1409.8 294.6 1408.4 294.4 1407C293.8 1404 294.2 1401 295.8 1398.6ZM352.6 1409C352.2 1411.6 350.8 1414 349.8 1416.4C348.8 1418.8 348.2 1421.6 349.2 1424C350.2 1426.6 353.4 1428.2 355.6 1426.6C356.8 1426 357.4 1424.8 358 1423.6C359.2 1421 360.8 1418.6 363 1416.6C365.2 1414.8 367.8 1413.4 368.8 1410.8C371 1405.8 366 1402.2 361.6 1401.6C355.4 1400.8 353.6 1403.6 352.6 1409ZM475 1433.2C472.6 1433.8 470.2 1433.8 468.4 1433.4C467.6 1433.2 466.6 1432.8 466 1432.2C464.8 1431.2 465 1429.2 466 1428C467 1426.8 468.6 1426.4 470.2 1426.4C472.8 1426.6 480.8 1420 480.6 1427.6C480.6 1430.6 478 1432.4 475 1433.2ZM273.2 1607.8C274.2 1610.2 275.6 1612.6 278 1612.6C279 1612.8 279.8 1612.4 280.8 1612.2C281.8 1611.8 283 1611.2 283.4 1610C283.6 1608.8 282.8 1607.4 281.8 1606.6C280.6 1605.8 279.4 1605 279 1603.8C278.2 1601.8 279.6 1599.6 279.2 1597.6C277.8 1593.2 271.8 1595.4 270.8 1598.8C270 1601.6 272.2 1605.4 273.2 1607.8ZM695.4 1568.2C693.8 1569.2 692.8 1570.8 692.8 1572.6C692.6 1574 693 1575.4 692.6 1576.6C692 1578.2 690.2 1578.8 689.2 1580C687.8 1581.8 687.8 1584.4 688.8 1586.2C689.8 1588.2 691.4 1589.8 693.2 1591.4C693.6 1591.8 694 1592.2 694.6 1592.2C695.2 1592.4 695.6 1592.2 696 1592C698 1591.4 699.2 1589.2 698.8 1587C698.6 1585.8 698 1584.6 698.2 1583.2C698.4 1581.8 699.8 1580.8 700.8 1579.6C703.6 1575.8 702.4 1563.8 695.4 1568.2ZM729.2 1566C727.8 1567 725.4 1566.4 724.8 1567.8C724.4 1569.2 725.2 1574.2 722 1570.4C720.8 1569 720.2 1566.6 720.2 1564.2C720.4 1561.8 721.4 1559.6 723.6 1559C726.2 1558.2 730.2 1561.4 730 1564.2C730 1565.2 729.6 1565.6 729.2 1566ZM762.2 1560.2C761 1559.8 759.8 1559.6 758.4 1559.6C756.2 1559.6 753.6 1559.8 752 1561.6C751.6 1562.2 751.2 1563.2 750.8 1564C749.8 1566.2 748.2 1568.4 748 1571C747.8 1573.6 749.2 1576.4 751.8 1576.6C753.6 1576.8 755.8 1575.4 757.2 1576.6C758.4 1577.4 758.6 1579 759.8 1579.6C760.6 1580 761.8 1579.6 762.6 1579.2C765.4 1578.2 768.6 1576.6 769.4 1573.8C770 1571.8 769.2 1569.6 768.2 1568C766.8 1565.6 765 1561.2 762.2 1560.2ZM770.2 1629C776.8 1632 768.8 1644.2 763.2 1635.8C762.6 1634.6 762 1633.2 762.4 1632C762.8 1631 763.6 1630.2 764.4 1629.6C766.2 1628.6 768.4 1628.2 770.2 1629ZM999.2 1290C995.6 1281.6 983.2 1279.8 979.6 1271.4C978.8 1269.2 978.6 1266.8 977.6 1264.6C974.4 1256.4 963.8 1254.6 957.2 1248.8C949 1241.8 948.2 1229.6 946.2 1218.8C944.2 1208.2 939.8 1197.2 931 1190.8C922 1184.6 907.8 1185 901.8 1194.2C899.8 1197.4 898 1201.6 894.4 1201.6C891.4 1201.6 889 1198.2 886 1198C881.6 1198 879.6 1204.2 875.2 1205.4C873.6 1205.8 872 1205.6 870.6 1205.2C863 1203.2 855 1199.2 848.2 1202.8C846 1204 843.6 1205.6 841.6 1204.4C840 1203.2 840.2 1200.6 838.8 1199C836.4 1196.8 832.6 1199 829.8 1200.8C822.4 1205.4 812.2 1205 805.2 1199.6C804.6 1199 803.8 1198.2 803.6 1197.4C803.2 1195.8 804.6 1194.2 805.8 1193C808.8 1189.8 811 1184.4 807.8 1181.2C804.6 1178.2 798 1179.6 796.2 1175.4C794.8 1172.2 798 1169 799 1165.6C800 1162 798.6 1158 795.4 1156.2C792.4 1154.2 788.2 1154.6 785.6 1157C780.6 1161.4 781.2 1171.2 774.8 1172.8C768.4 1174.4 764.8 1166.2 761.6 1160.8C757.2 1153.6 748.8 1148.8 740.4 1149.2C732 1149.8 724 1155.6 721.6 1163.6C720.6 1166.6 720.4 1169.8 719.4 1172.6C716.6 1179.8 708.8 1184.6 708.6 1192.2C705.8 1190.2 701.8 1190.8 698.8 1192.8C696 1194.8 694.2 1197.8 692.4 1200.8C691.2 1198.2 689.8 1195.4 687.6 1193.8C685.2 1192 681.6 1191.8 679.8 1193.8C676.4 1197.4 680 1203.6 675.8 1206.6C672.8 1209 665.4 1207.2 662.4 1205.2C654.4 1199.2 659.2 1187.8 651.6 1181C646.8 1176.4 649.6 1170.4 643.2 1166.4C640.4 1164.6 636.8 1163.6 633.2 1163.2C632.933 1163.87 632.667 1164.6 632.4 1165.4C628 1175.6 621.6 1185.2 619.6 1196.2C618.6 1200.8 617.8 1206.4 613.4 1208.2C612.2 1208.8 610.6 1208.8 609.4 1209.4C605.6 1210.8 604.6 1215.4 604.2 1219.4C604.2 1220.6 604.2 1221.8 603.4 1222.8C603 1223.6 602.2 1224 601.4 1224.6C598.6 1227 598.6 1232.2 601.6 1234.6C602.4 1235.2 603.6 1235.6 604.2 1236.4C605.8 1238.2 605.2 1241 606.6 1243C608.2 1245.6 612.2 1245.4 615.2 1246.8C622.4 1249.8 622 1261 627.8 1266.4C631.2 1269.6 636.2 1270.6 638.4 1274.4C640.8 1278.4 639 1283.6 636.6 1287.6C635.6 1289.2 634.6 1290.8 633 1291.8C631.4 1292.8 629.2 1293 627.6 1291.8C624.8 1289.8 626.4 1285 625 1281.8C624.2 1279.8 622.2 1278.4 620 1277.8C616.4 1277 612 1278.4 610.4 1281.8C608.8 1285.2 611.6 1290 615.4 1289.6C617.4 1289.4 619.6 1288 621.2 1289.2C622.2 1290.2 622 1291.6 621.8 1293C621.667 1294.33 621.533 1295.67 621.4 1297C621.2 1297.8 621 1298.6 620.4 1299C619.6 1299.8 618.4 1299.4 617.4 1299.4C613.8 1299.2 610.6 1302.2 610.4 1305.8C610.2 1306.8 610.4 1307.8 610 1308.6C609.2 1310 607.2 1310.4 605.8 1311C602.2 1312.4 599.8 1316.4 600.6 1320.2C601.2 1324 604.8 1327 608.8 1327C612.6 1327 616.2 1323.8 616.8 1320C617.2 1318 616.8 1316 617.2 1314C617.6 1312 619.6 1310 621.6 1310.6C623.6 1309.8 626 1312.2 626.2 1314.4C626.4 1316.6 625.2 1318.6 624.4 1320.6C622.2 1325.6 621.6 1331.2 622.2 1336.6C623 1341.8 625 1347.2 623.8 1352.4C622.6 1358.4 617 1362.8 616.2 1369C616 1370.2 616 1371.4 616.8 1372.4C617.2 1373 618 1373.4 619 1373.8C621.2 1374.6 623.8 1374.6 626 1373.8C627.8 1373 629.2 1371.8 631 1371C636.8 1368 644 1369.2 650.4 1370.6C652.2 1371 654 1371.4 655.4 1372.6C656.6 1373.8 657.4 1375.8 656.6 1377.4C655.6 1379 653.4 1379.4 651.6 1378.8C649.8 1378.4 648.4 1377.4 646.6 1376.8C639.8 1374.4 632.8 1379 625.8 1380.6C623.2 1381.2 620.2 1381.6 618.8 1383.8C617 1386.6 619.2 1390.6 622.2 1392.2C625.4 1393.6 628.8 1393.2 632.4 1393.2C641.8 1393.4 651.8 1397 657.2 1404.8C658.8 1407.2 660 1410.4 658.2 1412.4C656.6 1414.2 654 1414.2 651.8 1414C647.8 1413.6 643.2 1412.6 641.4 1409C640.6 1407 640.8 1404.8 640 1402.8C638.6 1398.2 633.4 1396.2 628.8 1395.6C627.6 1395.4 626.4 1395.4 625.4 1396C622.8 1397 622.4 1400.2 621.6 1402.8C620.2 1406.8 617 1410 617 1414.2C617 1419.4 622 1423.2 626.8 1425.4C631.6 1427.8 637 1430 639 1435C630.6 1438 620.2 1433 617.2 1424.6C615.8 1420.6 615.8 1416 613.4 1412.6C612.4 1411.2 611 1410 610.2 1408.6C608.2 1405.8 608 1402.2 607.8 1398.8C607.8 1395.4 607.8 1392 606.4 1389C605 1385.8 601.6 1383.4 598.4 1384.2C596.2 1384.8 594.6 1386.6 593.4 1388.6C590.4 1393.2 588.8 1397.6 589 1403C589 1407.8 589.4 1412.6 590.6 1417.2C592.4 1425 596.2 1432 599.8 1439C600.8 1440.8 601.8 1442.6 603.4 1443.8C606.2 1445.8 609.6 1445.8 613 1446.2C619.8 1447.4 625.8 1451.2 631.6 1454.8C638.4 1459.2 645.4 1464.4 644.4 1473.4C644 1476.8 643 1480 643.4 1483.2C644 1486.6 646.6 1489.8 649.8 1489.6C651.4 1489.6 652.8 1488.6 654.4 1488.8C656.6 1489.2 658 1492.6 656.2 1494.4C655 1495.6 652.8 1495.8 651.6 1497.2C650.2 1498.6 650.4 1500.8 649.8 1502.8C649 1505.2 647 1507 646 1509.4C644.8 1511.6 645.2 1515.2 647.8 1515.8C651.6 1517 654.6 1509.8 658.4 1511.4C660.8 1512.6 660.2 1516 659.2 1518.4C658 1521.8 656.6 1525 656.6 1528.6C656.8 1529.4 656.8 1530.2 657.4 1531C658.6 1533 661.8 1532.4 663.6 1530.6C665.2 1528.8 666 1526.6 667.4 1524.6C668 1523.8 669 1522.8 670 1522.8C671.4 1522.8 672.4 1524 673.6 1524.6C677.4 1526.8 682.2 1523.8 684 1520C685.6 1516 685.2 1511.6 685.2 1507.2C685.2 1503 686 1498.2 689.2 1495.4C693.6 1491.6 701 1492.8 704.8 1488.6C715.6 1476.6 726.6 1465.6 726.6 1449.6C726.6 1444.2 724.6 1436.6 726.4 1431.4C726.6 1430.6 727.6 1429.8 728.4 1429.8C730 1430 730.4 1432 730.4 1433.4C730.6 1437.2 730.6 1440.8 730.6 1444.6C730.733 1453.4 731.067 1462.13 731.6 1470.8C731.6 1472.6 731.8 1474.4 732.6 1475.8C734.8 1479.4 739.6 1479.6 743 1481.8C745.4 1483.2 746.8 1485.4 749 1486.8C751.4 1488.4 754.8 1488.4 756 1486C756.6 1484.8 756.4 1483 757.4 1482C758.8 1480.6 761 1481.6 762.6 1482.6C764.2 1483.6 766 1485 767.8 1484.2C771 1482.8 769 1476.6 772 1475C772.8 1474.6 773.6 1474.6 774.4 1474.4C779.4 1473.8 783.2 1468.6 782.6 1463.8C782.2 1461.4 781 1459.2 781.4 1457C781.8 1453 786.2 1451 787.8 1447.4C790.2 1441.8 785.6 1434.6 789 1429.6C792.6 1424.6 797.2 1422.6 802.8 1420C809.8 1416.6 816 1411.4 820.4 1404.8C821.4 1403.2 823.6 1401.2 825 1402.8C825.2 1403.2 825.4 1403.8 825.8 1404.2C826.4 1404.8 827.2 1404.8 828.2 1404.8C833.6 1404.4 839.6 1404 843.4 1400C847.4 1395.8 847.6 1389 851 1384.2C851.6 1383.6 852.2 1383 853 1382.8C854 1382.8 855 1383.8 855.4 1384.8C855.8 1385.8 855.8 1387 856.4 1388C857.6 1390.8 861.6 1391.2 864.8 1391.2C866.6 1391.2 868.8 1391 869.8 1389.4C870.4 1388.4 870.4 1387.4 871 1386.4C872.2 1384.4 875.4 1384.6 877 1386.4C878.6 1388 879 1390.4 879 1392.8C879.2 1396.6 878.8 1400.4 877.8 1404.2C877.2 1406.2 876.4 1408 875 1409.6C873.6 1411 871.4 1411.8 869.6 1411.2C864.4 1409.4 866.4 1399.6 861.4 1397.8C858.8 1397 855.8 1399.2 855.4 1402C855 1403.8 855.8 1405.8 855.4 1407.8C854.8 1410.8 851.6 1412.8 850.8 1416C850.4 1417.4 850.6 1419.2 850.4 1420.8C850 1422.2 848.8 1424 847.2 1423.6C846 1423.4 845.2 1422.4 844.4 1421.6C842.4 1420.2 839.6 1420.2 837.8 1421.6C836 1423.2 835 1425.6 835.2 1428C835.2 1430 836.2 1432.2 835 1434C833.8 1435.6 831.6 1435.8 829.8 1436.6C826.6 1437.8 824.4 1441 822.6 1444C821.4 1445.8 820.2 1448.2 820.8 1450.2C821.8 1453 825.4 1454.2 826.2 1457C826.4 1457.8 826.4 1458.8 827 1459.4C827.6 1460 828.6 1460.2 829.4 1460.2C832.2 1460.47 835 1460.47 837.8 1460.2C839.8 1460.2 843.2 1461 845 1460.4C846 1460 847 1459.4 848 1458.8C852.2 1456.8 857.2 1459.6 861.2 1462.4C862.2 1463 863.2 1463.8 863.4 1464.8C863.8 1466.6 862.2 1468.4 863 1470C863.8 1471.8 866.2 1471.6 867.6 1472.8C870.6 1474.8 869.4 1481 873 1481.4C875 1481.8 876.6 1479.4 877 1477.2C877.4 1475 877.6 1472.6 879.4 1471.2C881.4 1469.6 884.6 1470.8 887.2 1470.8C890.4 1470.8 893.6 1468.8 895 1466C895.4 1465.2 895.8 1464.2 896.4 1463.6C897.4 1462.4 899 1462.2 900.2 1461.4C903.8 1459.8 906 1455.6 905.2 1451.8C904.8 1450.6 904.4 1449.4 903.2 1448.8C901 1447.6 897.8 1449.6 896.2 1447.8C895.2 1446.6 895.6 1445 895 1443.6C894.4 1442.2 892.4 1441.6 890.8 1442C889.2 1442.4 888 1443.4 886.6 1444.4C886.2 1444.8 885.6 1445.4 884.8 1445.4C883.8 1445.6 882.8 1444.6 882.2 1443.6C881 1440.6 883 1436.8 886 1435.6C889 1434.2 892.6 1435.2 895.4 1437C896.4 1437.6 897.4 1438.2 898.4 1438.2C899.4 1438.2 900.2 1437.6 901.2 1437.4C903 1437.4 904.2 1439 905.2 1440.4C906.4 1441.8 908.4 1443 909.6 1441.8C910.4 1441 910.4 1439.8 911.2 1439C912.4 1438 914 1438.8 915.6 1439.2C919 1440.2 923.2 1438.4 925 1435.2C926.8 1432 926 1427.4 923.2 1425C921.2 1423.2 918 1422.2 916.8 1419.6C916.4 1418.8 916.2 1417.8 915.8 1417C915 1415.2 913.4 1413.8 911.8 1412.4C905.933 1407.47 900.4 1402.2 895.2 1396.6C893 1394.2 890.8 1391 891.8 1388C892.6 1385.4 896 1383.6 895.8 1380.8C895.6 1378.2 892 1376 892.8 1373.6C893.2 1372.6 894.2 1372 894.6 1371C895.6 1368.8 893.8 1366.6 892 1364.8C890.4 1363.2 889 1360.2 890.8 1358.6C892 1357.6 893.8 1358 895.2 1358.8C896.6 1359.6 897.8 1360.8 899.2 1361.2C900.8 1361.6 902.8 1360.8 902.8 1359.2C904.6 1357.2 908 1356.2 910.6 1356.4C913.4 1356.4 916 1357 918.8 1356.4C921.4 1355.6 923.8 1353.4 923.6 1350.8C923.6 1349.8 923.2 1348.8 923.4 1347.8C923.8 1345.6 927.4 1346 928.6 1348C929.8 1349.8 929.6 1352.2 929.8 1354.6C930.2 1357.8 931.6 1360.8 933 1363.8C933.8 1365.4 934.6 1366.8 935.6 1368C937.2 1370 939.6 1371.2 941.6 1373C945.2 1376 947.8 1380.6 948 1385.2C948.4 1390 946.2 1395 942.6 1398C941 1399.2 939.2 1400 938.4 1401.8C937.6 1403.2 937.6 1404.6 937.6 1406.2C937.8 1411.2 938.6 1417.4 943.4 1419C945.8 1419.8 948.4 1419.2 950.4 1420C954.2 1421.6 956 1427.4 960 1426.6C963.2 1426.2 964 1421.6 963.4 1418.4C962.8 1414.4 961.4 1410.6 959.6 1407C958.8 1405.6 957.8 1404 957.6 1402.2C957.4 1400.6 958 1398.6 959.4 1397.8C960.4 1397.4 961.4 1397.4 962.4 1397.2C964.8 1396.8 967 1394.8 967.6 1392.4C968 1390.6 967.8 1388.6 968.2 1386.8C968.6 1385 970.6 1383.4 972.2 1384.2C974.6 1385.2 973.4 1388.6 974.2 1391.2C975 1393.8 978.2 1395 981 1395.6C982 1395.8 983.2 1396 984.2 1395.8C987.6 1394.8 987.6 1389.2 990.6 1387.6C991.4 1387.2 992.4 1387 993.2 1386.6C995.4 1385.4 995.2 1381.8 994.2 1379.4C993.4 1376.8 992.4 1373.6 994.2 1371.6C995 1370.6 996.2 1370 997.4 1369.4C999.4 1368 1000.4 1365.6 1000.8 1363.2C1001.6 1358.2 998.4 1353 994 1350.8C989.4 1348.6 983.6 1349.2 979.4 1352.2C976.6 1354.4 974.4 1357.6 971.2 1359.2C966.4 1361.6 960.2 1359.6 957.4 1355.2C956.6 1354 956.2 1352.6 955 1351.8C954.2 1351.4 953.2 1351.2 952.6 1350.6C949.8 1348.4 952.4 1343.8 951.6 1340.4C950.8 1337.8 948 1335.8 948.8 1333.2C949.4 1330.8 952.6 1330.4 954.8 1331.4C956.8 1332.4 958.4 1334.2 960.6 1335.4C966 1338.8 974 1335.6 975.8 1329.4C976.4 1327.8 976.4 1326 977.2 1324.4C979 1321.2 983.6 1320.6 987.4 1320.6C989.8 1320.6 992.6 1319.8 995.2 1319.6C994.2 1310.6 1003 1299.2 999.2 1290Z"  stroke="#161616" stroke-width="1.5" stroke-linecap="round" stroke-linejoin="round"/>
<path d="M589 1119.4C588.6 1119.6 588.2 1119.8 587.8 1120C586.8 1120 585.8 1119.4 585.4 1118.4C585 1117.6 585 1116.6 585 1115.6C584.8 1114.2 584.8 1112.8 585.4 1111.6C585.8 1110.4 586.8 1109.6 587.6 1108.6C588.933 1107.27 590.267 1105.93 591.6 1104.6C594 1102.2 601.2 1100.2 601.8 1105.2C602.6 1110.4 592.8 1117.2 589 1119.4ZM959.6 1199.4C961.8 1195.2 961.4 1190.2 960.4 1185.6C959.6 1182.6 959 1179 961 1176.8C962 1175.6 963.8 1175 965.4 1174.4C970.2 1172.2 973.6 1165 969.4 1162C967.4 1160.4 964.2 1160.4 963 1158.2C962 1156.6 962.8 1154.6 963.4 1152.8C965.6 1144.8 963.4 1135.8 957.6 1129.8C955.8 1128.2 954 1126.6 952.8 1124.6C950.2 1120.2 951.8 1114.8 953.6 1110C957.067 1100.13 960.533 1090.2 964 1080.2C965 1077.6 966 1074.8 967.4 1072.4C968.8 1070.2 970.6 1068 971.2 1065.4C972.4 1060.2 968.8 1053.2 973 1049.8C975.2 1048.2 978.2 1048.6 980.6 1047.8C986.6 1045.8 988.2 1037.4 993.6 1034.2C996.6 1032.4 1000.2 1032.4 1003 1030.4C1006.2 1028.2 1007.8 1023.6 1011.4 1022C1016 1019.6 1023.2 1022.4 1025.8 1017.8C1027.8 1014.4 1024.8 1009.8 1026.2 1006C1027.2 1003.4 1030.2 1002 1032.2 999.8C1036.2 995.8 1036 989 1033.4 984C1030.8 978.8 1026.2 975.2 1021.8 971.6C1019.8 969.8 1017.6 968.2 1015 968.2C1009.4 968.4 1006 976.6 1000.8 975.2C997 974.2 995.8 968.8 992 967.6C987.2 966 980.2 971.2 978 966.8C977.2 965 978 962.8 977 961.2C975.2 958.6 971 960.8 968.6 963.2C957.6 973.2 943.4 979.6 928.6 981C919.2 982 908.8 980.4 902.2 973.6C897.8 969 895.4 962.4 890 959C886.6 956.8 881.8 956 879.6 952.4C877 947.8 879.6 941 875.8 937.6C872.6 937 870 939.6 867.4 941.6C860.6 946.6 851.6 947.4 843 947.8C832.6 948.2 820 947.4 815.6 938C814.2 935 813.8 931.2 810.8 929.6C808.2 928.2 805 929.4 802 930C791.2 931.8 779.8 923.4 769.6 927.6C761 931 758 941.2 753.6 949.2C749.6 956.2 743.8 962 737 966.2C737.133 966.2 737.2 966.2 737.2 966.2C738 966.8 738.6 968 738 968.8C737.6 969.4 736.8 969.6 736 969.6C731.4 970.4 725.4 969.2 722.6 973C721.6 974.6 721.2 976.4 720.2 978C717.8 981.4 712.8 981.6 708.4 981.6C703 981.6 697.4 982 692.2 984.2C690.4 985 688.6 986 686.8 986.2C684 986.8 681.2 985.8 678.4 985.6C675.4 985.2 672.2 985.8 669.2 986.6C668.2 987 662.6 987.4 662.4 987.6C658.8 991.6 671.2 996.4 673.4 996.4C677 996.4 681.6 995.4 683.2 998.6C683.8 999.8 683.6 1001.2 683.4 1002.6C683.2 1005.2 682.8 1007.8 683.2 1010.4C683.6 1013 685.2 1015.4 687.6 1016.4C694.2 1019 700.8 1008.8 707.6 1011C710.6 1012 711.6 1012.4 714.6 1013.2C717.6 1014 720.8 1014.6 723.8 1013.6C728.4 1012.2 731.2 1006.6 736 1005.8C738 1005.4 740.8 1006.8 740.4 1008.8C740.2 1011 737.2 1011.4 735.4 1012.8C731.8 1015.2 732.6 1021.8 728.4 1023.4C727.4 1023.8 726.2 1023.6 725 1023.6C721.8 1023.33 718.6 1023.07 715.4 1022.8C712.8 1022.6 710 1022.6 708.2 1024.2C706 1026.2 706.2 1029.8 708 1032.2C709.6 1034.8 712.4 1036.2 715 1037.6C719.133 1039.73 723.267 1041.87 727.4 1044C729.2 1045 729 1045.8 729.2 1047.6C729.2 1049.6 727.8 1051.8 725.8 1051.6C724.2 1051.4 723.2 1049.8 722 1048.6C719.4 1046.2 715.6 1045.8 712.2 1045.6C707.933 1045.33 703.733 1045.2 699.6 1045.2C695.4 1045.2 690.6 1045.6 688 1048.8C685.2 1052.6 686.4 1057.8 685.4 1062.4C684.6 1066.2 682 1069.4 678.6 1071.2C675.2 1072.8 671.2 1073 668.2 1075.4C666.8 1076.4 665.8 1077.8 664.6 1079.2C659.2 1086.2 651.8 1091.8 643.6 1095.2C642.6 1095.8 641.4 1096.2 640.6 1097C639 1098.6 639 1101.4 639.8 1103.6C640.8 1105.6 642.6 1107.2 644.4 1108.8C646.133 1110.27 647.867 1111.73 649.6 1113.2C650.6 1114 651.6 1114.8 652.8 1115.2C654.4 1115.6 656 1115 657.6 1114.4C668.2 1111.2 679.6 1110.4 690.6 1112.2C692.8 1112.4 695.8 1114 694.8 1116.2C694.2 1117.8 692 1117.8 690.2 1118C686.8 1118 683.6 1119.8 681.6 1122.4C680.2 1124 679.4 1126.2 677.6 1127.2C675.4 1128.6 672.8 1128.2 670.4 1128.2C662 1128 653.8 1131.8 647.6 1137.6C639.8 1144.8 637 1153.8 633.2 1163.2C636.8 1163.6 640.4 1164.6 643.2 1166.4C649.6 1170.4 646.8 1176.4 651.6 1181C659.2 1187.8 654.4 1199.2 662.4 1205.2C665.4 1207.2 672.8 1209 675.8 1206.6C680 1203.6 676.4 1197.4 679.8 1193.8C681.6 1191.8 685.2 1192 687.6 1193.8C689.8 1195.4 691.2 1198.2 692.4 1200.8C694.2 1197.8 696 1194.8 698.8 1192.8C701.8 1190.8 705.8 1190.2 708.6 1192.2C708.8 1184.6 716.6 1179.8 719.4 1172.6C720.4 1169.8 720.6 1166.6 721.6 1163.6C724 1155.6 732 1149.8 740.4 1149.2C748.8 1148.8 757.2 1153.6 761.6 1160.8C764.8 1166.2 768.4 1174.4 774.8 1172.8C781.2 1171.2 780.6 1161.4 785.6 1157C788.2 1154.6 792.4 1154.2 795.4 1156.2C798.6 1158 800 1162 799 1165.6C798 1169 794.8 1172.2 796.2 1175.4C798 1179.6 804.6 1178.2 807.8 1181.2C811 1184.4 808.8 1189.8 805.8 1193C804.6 1194.2 803.2 1195.8 803.6 1197.4C803.8 1198.2 804.6 1199 805.2 1199.6C812.2 1205 822.4 1205.4 829.8 1200.8C832.6 1199 836.4 1196.8 838.8 1199C840.2 1200.6 840 1203.2 841.6 1204.4C843.6 1205.6 846 1204 848.2 1202.8C855 1199.2 863 1203.2 870.6 1205.2C872 1205.6 873.6 1205.8 875.2 1205.4C879.6 1204.2 881.6 1198 886 1198C889 1198.2 891.4 1201.6 894.4 1201.6C898 1201.6 899.8 1197.4 901.8 1194.2C907.8 1185 922 1184.6 931 1190.8C937.2 1195.2 941 1201.8 943.6 1209C950.2 1207 956.4 1205.2 959.6 1199.4Z"  stroke="#161616" stroke-width="1.5" stroke-linecap="round" stroke-linejoin="round"/>
<path d="M1038 963.2C1039.8 962.6 1041.6 963 1043.4 962.6C1047.6 961.8 1050.4 957.6 1051.4 953.4C1052.6 949.2 1052.8 944.8 1054.4 940.8C1056 937.2 1058.8 934.2 1060 930.6C1061 927.4 1060.6 924 1059.8 920.8C1059.2 918.2 1058.4 915 1060.6 913.4C1062.6 912 1065.2 913.4 1067.4 913.8C1071.4 914.4 1075.6 912.2 1077.2 908.6C1073.6 906.8 1072.6 902 1071.2 898.2C1070 894.2 1067.2 889.8 1063 890.2C1059.8 890.6 1057.4 893.8 1054.2 894.2C1051.2 894.4 1048.8 891.8 1046.8 889.6C1044.6 887 1042.6 884.4 1039.6 882.6C1036.8 881 1033 880.6 1030.4 882.8C1028.8 883.8 1028 885.6 1026.2 886.4C1022 888.4 1018 882.2 1019.4 877.8C1020.6 873.2 1024.4 869.8 1026.2 865.6C1027.8 861.8 1027.8 857.8 1027.8 853.8C1028.2 839.6 1030 825.4 1033.6 811.6C1034.6 807 1035.6 801 1031.4 798.6C1029.6 797.4 1027.4 797.6 1025.8 796.2C1023.4 794.6 1023.2 791 1021.4 788.8C1017.6 784.2 1008.4 785.6 1007 780C1005.8 775.8 1010.8 772.4 1015.2 771.6C1019.4 770.6 1024.6 770.2 1027 766.4C1030 761.4 1026.6 752.8 1032 750.6C1033.6 750 1035.6 750.4 1037.4 750.4C1044 750.6 1050.4 744.8 1050.6 738.2C1051.6 742 1056.8 742.4 1060.4 741.4C1064.2 740.4 1068.4 738.8 1071.8 740.6C1074.8 742.2 1078.4 746.2 1080.4 743.4C1081.8 741.2 1079 739 1077 737.2C1072.6 733 1070.2 719.6 1074.4 714.6C1077.4 711 1091 707 1095.4 707C1099.2 707 1103 708.2 1106.8 707.4C1117 705.6 1122.4 693.6 1133.4 695.6C1139.8 696.6 1145 701.8 1146.8 708C1147.6 710 1148 712 1149.6 713.2C1151 714.2 1152.8 714.2 1154.4 714C1161 713.4 1167.4 711.6 1173.4 709C1175.6 707.8 1178 706.6 1179.4 704.8C1185.2 697.4 1177.2 686.6 1179 677.2C1180.6 668.8 1189.8 664.2 1197.8 660.8C1206 657.4 1215 652.4 1216.2 643.8C1216.4 642 1216.2 640 1216.8 638.2C1218.8 631.8 1227.6 631.8 1234 629.6C1236.8 628.4 1239.4 626.8 1241.4 624.4C1240.6 624 1240 623.4 1239.2 623C1232.2 619.4 1223.4 621.2 1216.2 618.2C1208 614.6 1202.2 605.2 1193.4 605.8C1187.4 606 1181.2 611.2 1175.8 608.2C1172.2 606.2 1171 601.2 1167.6 598.8C1163 595.4 1156.6 598 1151 599.6C1145.4 601 1137.4 599.4 1137.2 593.8C1137.2 589.4 1141.8 586.8 1145.2 584C1148.4 581.2 1150.4 574.8 1146.4 573.2C1142 576.2 1136.8 579.4 1131.8 578C1127.8 577 1125 573.4 1121.8 571C1118.6 568.4 1113.4 567 1110.8 570.2C1108.8 572.4 1107.8 577.2 1104.8 576.2C1103.4 575.8 1102.6 574.2 1101.6 573.2C1098.6 570.4 1093.6 573 1091 576.2C1088.6 579.6 1086.6 583.8 1082.6 585C1076.8 586.8 1071.8 581 1068.8 575.8C1065.8 570.4 1061.8 564.2 1055.8 564.8C1050.2 565.2 1047 571.4 1045.8 577C1044.8 582.4 1044.4 588.6 1040.6 592.8C1037.4 596 1032.6 597 1028.2 598C1020.6 599.4 1008.8 604.4 1001.4 601.2C994 598 993.2 584 989 576.4C988 581.6 986.4 587.2 986.2 587.6C983.8 593.2 982.4 601.8 974.2 600.6C970 600 966.4 597 963.2 594.2C959.6 596.2 961.8 601.4 962.8 605.4C964.6 612.2 960 620.2 953 622C948.4 623.2 942 622.6 939.6 626.8C938.8 628.2 938.6 630 937.6 631.4C934.6 636 927.2 632 921.8 633.6C914.2 635.8 913.2 648.4 905.4 650C901.6 651 896.2 649 894 652.4C892.4 654.8 894.2 658.2 893.8 661C893 665.4 888 667.6 883.6 668.4C879.2 669.2 874.2 669.8 871.6 673.6C869.6 676.6 869.2 681.8 866.2 683.2C867.4 688.2 869.8 692.6 874.2 694.8C876 695.8 878 696.2 879.4 697.6C880.8 699.2 881.2 701.6 882.4 703.4C884.4 706.4 888 707.6 891 709.4C897.4 713.2 901.6 720.4 901.8 727.8C901.8 731 900.4 734.8 897.4 735C894 735.2 892.2 730.8 889 729.6C884.8 728.2 881.2 732.8 879.4 736.8C875.4 744.8 871.6 752.8 868 761C866.4 764.4 864.8 768.4 866.4 771.8C867.6 774.6 870.2 776.4 871.6 779C873.6 783.4 870.8 789.6 874 793.2C878.2 798 888.4 794.6 890.6 800.6C886.6 801.8 886.4 807.6 888.4 811.2C890.4 814.8 893.6 818 894.2 822C894.6 823.8 894.4 825.8 895.8 827C898.4 829.6 902.2 825.2 905.8 824.6C909.6 824 912.8 827.4 914.2 830.8C915.6 834.4 916.2 838.4 918.6 841.4C921 844.2 926.2 845.2 928.2 842C929.8 839.2 928.8 833.8 932 833.8C933.4 833.8 934.6 834.8 935.2 836C938.2 841.4 936.4 848 933.8 853.4C931 858.8 927.2 863.8 926 869.8C925.2 873 925.2 876.2 924.4 879.4C923.6 881.8 922.2 884.2 922.8 886.6C924.2 892.4 933.8 891 937.4 895.6C939.8 898.8 939 904 942 906.4C944 908.2 947 908 949.2 909.2C953.4 911.6 953.8 917.6 952.8 922.2C951.8 927 950 932 951.6 936.6C953.8 942.6 961.8 945.8 962.4 952.4C962.6 954.6 962 957 962.6 959C963.4 961 965.4 962.4 967.2 963.8C967.333 963.8 967.4 963.867 967.4 964C967.8 963.733 968.2 963.467 968.6 963.2C971 960.8 975.2 958.6 977 961.2C978 962.8 977.2 965 978 966.8C980.2 971.2 987.2 966 992 967.6C995.8 968.8 997 974.2 1000.8 975.2C1006 976.6 1009.4 968.4 1015 968.2C1017.6 968.2 1019.8 969.8 1021.8 971.6C1023.4 972.8 1025 974.133 1026.6 975.6C1028.87 972.267 1031.4 969.067 1034.2 966C1035.4 964.8 1036.6 963.6 1038 963.2Z"  stroke="#161616" stroke-width="1.5" stroke-linecap="round" stroke-linejoin="round"/>
<path d="M882 835.4C878.4 838.2 873.2 837.2 869.4 839.2C864.6 841.8 863.2 847.8 862.2 853.2C861.4 858.667 860.533 864.2 859.6 869.8C858.8 874 858.2 878.6 860.8 882C862 883.4 863.6 884.4 864.8 886C867 888.8 866.8 892.8 867.4 896.6C868.6 905 874 912.6 881.6 916.8C885.2 912.4 885 906.2 885 900.6C885 894.8 886 888.4 890.8 885.6C896 892.8 900 901 902 909.8C902.6 911.8 903.4 914.2 905.4 914.8C907.6 915.6 909.8 913.2 910.6 911C911.4 908.8 911.8 906.4 913.6 904.8C915 903.2 917.2 902.8 919 901.8C923 899.2 923.8 894.2 924.8 889.4C924 888.8 923.2 887.8 922.8 886.6C922.2 884.2 923.6 881.8 924.4 879.4C925.2 876.2 925.2 873 926 869.8C927.2 863.8 931 858.8 933.8 853.4C936.4 848 938.2 841.4 935.2 836C934.6 834.8 933.4 833.8 932 833.8C928.8 833.8 929.8 839.2 928.2 842C926.2 845.2 921 844.2 918.6 841.4C916.2 838.4 915.6 834.4 914.2 830.8C912.8 827.4 909.6 824 905.8 824.6C902.2 825.2 898.4 829.6 895.8 827C894.4 825.8 894.6 823.8 894.2 822C893.8 819.6 892.6 817.6 891.2 815.6C889.2 818.6 887.6 822 886.6 825.6C885.4 829 884.8 833.2 882 835.4Z"  stroke="#161616" stroke-width="1.5" stroke-linecap="round" stroke-linejoin="round"/>
<path d="M838 737.2C833 737.2 829.2 742.4 829 747.2C828.6 752.2 830.4 757 831.8 761.8C835.2 773.2 835.6 785.6 833 797.2C831.4 804 828.8 811.4 832 817.6C833.6 820.8 836.6 823 839 825.6C843.8 830.8 846.6 837.6 846.8 844.6C846.8 851.6 844.8 859.2 848.8 864.8C851.2 868.2 855.2 869.6 859.4 871C859.4 870.6 859.467 870.2 859.6 869.8C860.533 864.2 861.4 858.667 862.2 853.2C863.2 847.8 864.6 841.8 869.4 839.2C873.2 837.2 878.4 838.2 882 835.4C884.8 833.2 885.4 829 886.6 825.6C887.6 822 889.2 818.6 891.2 815.6C890.2 814.2 889.2 812.8 888.4 811.2C886.4 807.6 886.6 801.8 890.6 800.6C888.4 794.6 878.2 798 874 793.2C870.8 789.6 873.6 783.4 871.6 779C870.2 776.4 867.6 774.6 866.4 771.8C864.8 768.4 866.4 764.4 868 761C869.333 757.933 870.733 754.867 872.2 751.8C863 750.4 854.2 746.8 846.6 741.4C844 739.4 841.2 737.2 838 737.2Z"  stroke="#161616" stroke-width="1.5" stroke-linecap="round" stroke-linejoin="round"/>
<path d="M623.2 853.8C622.8 853.933 622.4 854.333 622 855C621.4 855.8 621.6 857 622 857.8C622.6 858.8 623.6 859.2 624.6 859.8C626.4 860.6 628.4 860.8 630.4 861.2C632.6 861.4 635 861.8 636.8 860.6C642.8 857.4 637.6 848.8 631.8 850.8C630.6 851.2 629.6 852.6 628.6 853.4C626.6 855 625 853.2 623.2 853.8ZM633.2 622.6C636.8 623.4 642.2 627 640.4 631.2C638.4 635.4 633.4 633.4 631 630.4C629.2 628.2 628.6 625.2 631.6 623.2C632.2 622.8 632.6 622.6 633.2 622.6ZM614.4 860.4C620.6 860 618 871.6 613 871C608 870.6 610.2 860.8 614.4 860.4ZM967.2 963.8C965.4 962.4 963.4 961 962.6 959C962 957 962.6 954.6 962.4 952.4C961.8 945.8 953.8 942.6 951.6 936.6C950 932 951.8 927 952.8 922.2C953.8 917.6 953.4 911.6 949.2 909.2C947 908 944 908.2 942 906.4C939 904 939.8 898.8 937.4 895.6C934.6 892 928.2 892 924.8 889.4C923.8 894.2 923 899.2 919 901.8C917.2 902.8 915 903.2 913.6 904.8C911.8 906.4 911.4 908.8 910.6 911C909.8 913.2 907.6 915.6 905.4 914.8C903.4 914.2 902.6 911.8 902 909.8C900 901 896 892.8 890.8 885.6C886 888.4 885 894.8 885 900.6C885 906.2 885.2 912.4 881.6 916.8C874 912.6 868.6 905 867.4 896.6C866.8 892.8 867 888.8 864.8 886C863.6 884.4 862 883.4 860.8 882C858.6 879 858.8 874.8 859.4 871C855.2 869.6 851.2 868.2 848.8 864.8C844.8 859.2 846.8 851.6 846.8 844.6C846.6 837.6 843.8 830.8 839 825.6C836.6 823 833.6 820.8 832 817.6C828.8 811.4 831.4 804 833 797.2C835.6 785.6 835.2 773.2 831.8 761.8C830.4 757 828.6 752.2 829 747.2C829.2 742.4 833 737.2 838 737.2C841.2 737.2 844 739.4 846.6 741.4C854.2 746.8 863 750.4 872.2 751.8C874.467 746.733 876.867 741.733 879.4 736.8C881.2 732.8 884.8 728.2 889 729.6C892.2 730.8 894 735.2 897.4 735C900.4 734.8 901.8 731 901.8 727.8C901.6 720.4 897.4 713.2 891 709.4C888 707.6 884.4 706.4 882.4 703.4C881.2 701.6 880.8 699.2 879.4 697.6C878 696.2 876 695.8 874.2 694.8C869.8 692.6 867.4 688.2 866.2 683.2C865.8 683.467 865.333 683.6 864.8 683.6C860.4 677.8 855.2 671.6 848 671C845.6 670.8 843 671.2 840.8 669.8C838.2 668.4 837.4 664.8 835.4 662.6C830.8 657.4 822.4 660.6 816.2 663.4C809.4 666.4 802.2 668.8 795 670.4C791.2 671.4 786 671.4 781.4 672.2C780.2 673.8 779 675.2 777.4 676.2C772.6 679.6 766.4 680 760.6 681.6C755 683.2 749 687.2 748.8 693.2C748.8 695 749.4 696.8 749.2 698.6C749 700.4 747.6 702.4 745.8 702.4C743.4 702.2 742.6 699 742.6 696.6C742.4 687.4 742.4 678 739.2 669.4C736 660.8 728.6 653 719.4 652.2C715.8 652 711.4 652.6 709 649.8C707.8 648.6 707.2 647 705.8 646.4C704 645.8 702.4 647 701 647.8C695.8 650.8 688.6 649.6 684.4 645.2C681.8 642.2 680 638 676.2 636.8C673.4 635.8 669.8 637 667.2 635.6C664.6 634.2 663.6 631 661.6 628.8C657.2 624.4 649 627.2 646.6 632.8C644 638.2 646.2 645 650.2 649.6C651.2 651 652.4 652.4 653 654C653.6 655.6 653.2 657.8 651.6 658.4C648.6 659.8 646.6 655.4 645.2 652.2C643 647.2 637.6 644 632.2 643C626.8 641.8 621.2 642.6 615.6 643.4C613.4 643.8 611 644.2 609.2 645.4C607.4 646.8 606.2 649.2 606.8 651.2C608 654.6 612.6 654.8 615 657.2C618.2 660.4 617.2 666.2 620.8 669C623.6 671.2 628 670 631.2 671.6C635.8 674 635.4 682 630.6 683.8C628.2 684.6 625.8 684.2 623.4 684.2C621 684.4 618.4 685.6 618 688C617.6 689.2 618.2 690.6 618.2 692C617.6 697.4 608 697 606.2 702C605.4 703.8 605.8 706.2 604 707.2C603.4 707.6 602.6 707.6 601.8 707.2C597.6 706 597.4 700.2 599.2 696.2C601 692.4 604.2 689 604.6 684.8C605 681.8 603.8 678.8 603 675.8C600.8 669 599.6 661.8 599.6 654.6C597 653 594.8 657.2 594.4 660.2C593.6 667 592.867 673.867 592.2 680.8C591.8 683.4 591.6 686.2 590.2 688.4C589 690.8 586.4 692.4 583.8 692C578.4 691 578.6 683.2 575.4 678.6C575 678 574.4 677.2 573.4 677.2C571.6 677 570.8 679.6 570.6 681.4C570.2 687 569.867 692.533 569.6 698C569.4 699.4 569.4 700.8 569.8 702C571 704.2 574 705.8 573.4 708.2C572.6 711 568.2 709.8 566.2 707.8C564.2 705.6 562 702.6 559.2 703.6C556.2 704.6 556.6 709 557 712C557.6 715.2 555.8 719.8 552.8 718.6C550.4 718.8 549.4 720.2 548.4 722.2C547.4 724.4 547.8 727 549.4 728.6C550 729.4 550.8 729.8 551.2 730.6C552.2 732.6 551 734.8 550 736.8C549 738.8 548.2 741.6 549.8 743C552 744.8 555.2 742.2 556 739.4C556.8 736.8 556.8 733.4 559 731.6C561.8 729.2 566 730.8 569 733C571.4 735 573.8 738 572.6 741C570.4 746 561 743.4 558.8 748.4C557.2 751.8 561.4 755.6 565.2 755.2C569 754.8 572 752 574.6 749.2C577.4 746.4 580.133 743.667 582.8 741C583.8 739.8 585.2 738.6 586.6 739C588.2 739.6 588.8 741.6 588.4 743.4C588.2 745.6 587 747.6 586.8 749.8C586.4 752 586.8 754.6 588.8 755.8C589.6 756.2 590.6 756.4 591.8 756.6C595.8 758 598.6 762.8 597.6 767C597 769.4 595.4 771.4 594.4 773.8C593.2 776 592.8 779 594.2 781C596 783.2 599.2 783.2 601.4 785C605.2 787.6 604.8 793 604.4 797.4C604 809 607 820.4 610 831.4C610.8 834.4 611.6 837.6 613.8 840C617.6 844.4 624.4 844.6 630.4 844.4C631 844.4 631.8 844.4 632.6 844C633.2 843.8 633.6 843.2 634 842.6C637.4 837.2 636.2 830 634.2 824C630.2 812 623.8 800.8 621.2 788.6C620.6 785.6 620.2 782.6 619.2 779.8C618 776.6 616.2 773.6 614.6 770.4C611.2 763.8 609 756.4 608.2 748.8C608 747 608.8 744.4 610.4 744.8C611.2 745 611.6 745.6 612 746.2C614.6 750.6 614.4 756 614.8 761C615.4 766.2 617.4 771.8 622.2 773.6C625.2 774.8 629.2 774 631.4 776.4C632 777.2 632.4 778 633.4 778.2C634 778.2 634.6 777.8 635.2 777.4C638 774.8 638.2 770.2 637.6 766.4C637 762.6 636 758.6 637.2 755C637.4 754.2 637.8 753.4 638.6 753C639.6 752.2 641.2 752.6 642.2 753.6C643.2 754.6 643.6 756 644 757.2C645.4 764.4 643.8 771.6 642.6 778.8C641.4 786 641 793.8 644.4 800.2C645.8 803 648 805.4 648.8 808.4C650.6 814 647.6 820.2 649.6 825.8C650.8 829 653.8 831.4 654.2 834.8C655.2 840.4 648.8 845.8 650.6 851.2C652.6 857.2 661.8 857 665 862.4C666.2 864.6 664.4 865 662.2 865.8C659.8 866.6 657 866.4 655.2 868.2C652.4 870.4 653.4 875 655.6 877.8C657.8 880.6 661 882.4 663.2 885.2C665.4 888 666.2 892.6 663.4 895C662.8 895.4 662 895.8 661.2 896.4C658.8 898.2 658 902.2 659.8 904.6C660.8 906 662 906.8 663.2 908C664.2 909.2 664.8 911 664 912.4C663 914 660.6 914 659.4 915.4C657.2 917.6 658.8 922 656.4 924C655.4 924.8 653.8 924.8 652.6 925.4C650.4 926.6 650.2 930.2 652.2 931.8C656 934.8 661.6 929 666.2 930.6C669.6 931.8 671.2 937 675 937C676 937 677 936.6 678 936.6C681.6 937 682 942 684.2 944.6C685.8 946.4 688.6 947.4 689.6 949.6C690.6 952.4 688.4 955.4 689 958.2C689.4 961.4 693.2 963.4 694.4 966.4C695 967.8 695 969.6 695.6 971C697.2 974.4 701.4 975.8 705.2 975.8C708.4 975.8 711.4 975.4 714.4 974.6C719.4 969.2 727 965.4 734.4 965.6C735.4 965.6 736.2 965.8 737 966.2C743.8 962 749.6 956.2 753.6 949.2C758 941.2 761 931 769.6 927.6C779.8 923.4 791.2 931.8 802 930C805 929.4 808.2 928.2 810.8 929.6C813.8 931.2 814.2 935 815.6 938C820 947.4 832.6 948.2 843 947.8C851.6 947.4 860.6 946.6 867.4 941.6C870 939.6 872.6 937 875.8 937.6C879.6 941 877 947.8 879.6 952.4C881.8 956 886.6 956.8 890 959C895.4 962.4 897.8 969 902.2 973.6C908.8 980.4 919.2 982 928.6 981C942.8 979.8 956.8 973.6 967.4 964C967.4 963.867 967.333 963.8 967.2 963.8Z"  stroke="#161616" stroke-width="1.5" stroke-linecap="round" stroke-linejoin="round"/>
<path d="M1404.4 1179.8C1401 1177 1396.4 1177 1392 1176.2C1391.87 1177.13 1391.6 1177.93 1391.2 1178.6C1388.6 1185.2 1381.2 1189 1374.2 1188.6C1372.4 1188.4 1370.4 1188 1368.8 1188.6C1363 1190.6 1365.4 1199.2 1364 1205C1361 1217.4 1341.2 1216 1333.8 1226.2C1332 1228.8 1331.2 1231.8 1329.2 1234.2C1325.4 1238.8 1318.8 1239.6 1313 1238.8C1309.6 1238.4 1305.8 1237.4 1303 1239.4C1297.2 1243.2 1300.8 1255.2 1294.2 1257.6C1291.8 1258.6 1289.2 1257.6 1286.6 1257.4C1284 1257.2 1280.8 1258.8 1281 1261.2C1281 1262.2 1281.6 1263 1282 1263.8C1284.67 1267.8 1287.27 1271.8 1289.8 1275.8C1292.8 1275.6 1295.2 1276.8 1297.8 1279C1300.6 1277.6 1298.2 1271.8 1301.2 1270.6C1302.6 1270 1304.4 1271.6 1304.8 1273C1305.2 1274.6 1305 1276.4 1305.2 1278C1305.6 1279.6 1306.6 1281.4 1308.4 1281.4C1311.4 1281.4 1311.4 1276 1314.2 1275C1316.4 1274.2 1318.6 1276.2 1319.2 1278.4C1319.8 1280.4 1319.4 1282.8 1320 1285C1321 1288.6 1324.4 1291.4 1328.2 1291.4C1332 1291.6 1335.8 1288.8 1336.8 1285.2C1337.6 1282.4 1337.6 1278.2 1340.4 1277.6C1342.8 1277 1344.8 1279.4 1346 1281.4C1347.4 1283.4 1349.6 1285.6 1351.8 1284.8C1354.2 1283.8 1354 1280 1352.2 1278C1350.6 1276 1348 1274.8 1346.6 1272.6C1345.2 1270.4 1345.8 1266.6 1348.4 1266.4C1350 1266.4 1351 1267.4 1352.2 1268.4C1354.8 1270.8 1357.8 1273 1361.4 1273C1365 1272.8 1368.6 1269.8 1368.2 1266.4C1368 1265 1367.2 1263.6 1368 1262.4C1368.4 1261.6 1369.4 1261.4 1370.4 1261C1376.2 1259.4 1377 1254.2 1382.4 1252.2C1385.2 1251.2 1388.4 1250.6 1391 1249C1395.2 1246.2 1397 1240.8 1398.4 1236C1400.8 1227 1403.2 1218 1402.4 1208.8C1402.2 1207.2 1402 1205.6 1402.2 1204C1402.6 1202.4 1403.8 1201 1405.4 1200.8C1406.4 1200.6 1407.4 1201 1408.6 1201.2C1408.8 1201.2 1409 1201.2 1409.2 1201.2C1409 1199 1409 1196.6 1409 1194.2C1409 1189 1408.4 1183 1404.4 1179.8Z"  stroke="#161616" stroke-width="1.5" stroke-linecap="round" stroke-linejoin="round"/>
<path d="M1458.2 1105.2C1457.6 1104.6 1456.8 1104.2 1456.2 1103.6C1454 1101.6 1453.4 1098.4 1453.8 1095.6C1454.2 1093.8 1454.8 1092.2 1455.4 1090.4C1451.6 1089.2 1447.6 1088 1443.4 1087.4C1438 1086.4 1432.4 1086 1427.2 1087.6C1423.4 1088.8 1420 1090.8 1416.2 1091.8C1412.4 1092.6 1407.8 1092 1405.6 1088.8C1403.8 1086.4 1404 1083.2 1403 1080.4C1400.2 1072.4 1390 1070.6 1381.4 1070.2C1375.4 1069.8 1369.2 1069.8 1363.6 1071.8C1357.8 1074 1352.8 1078.8 1352.4 1085C1352.2 1089 1353.8 1094 1350.6 1096.4C1349.2 1097.4 1347.2 1097.6 1345.6 1097.8C1342 1098.6 1338.8 1100.6 1336.2 1103.2C1339 1105 1341 1108 1341.6 1111.4C1342.2 1116.2 1340 1121 1336.6 1124.2C1335.6 1125.2 1334.2 1126.2 1333.8 1127.6C1333.4 1129.6 1334.8 1131.6 1336.4 1133C1344.8 1140.4 1358.4 1140.4 1366 1148.6C1369 1151.8 1371 1156 1375 1158.2C1377.8 1159.8 1381.4 1159.8 1384.4 1161C1390.2 1163.4 1393.2 1170.2 1392 1176.2C1396.4 1177 1401 1177 1404.4 1179.8C1408.4 1183 1409 1189 1409 1194.2C1409 1196.6 1409 1199 1409.2 1201.2C1412.6 1201.8 1416 1200.2 1417.8 1197.4C1419.4 1195.2 1420 1192 1422.4 1190.8C1424 1190 1426 1190.2 1427.6 1189.6C1429.6 1188.6 1430.8 1186.2 1431 1184C1431.2 1181.6 1430.6 1179.2 1430.2 1177C1429.2 1171.4 1429 1165.8 1429.6 1160.2C1429.8 1159 1430 1157.8 1430.8 1157C1431.4 1156 1432.6 1155.4 1433.6 1154.8C1437.4 1151.8 1437 1146.2 1436.4 1141.6C1436.2 1140.8 1436.2 1140 1436.6 1139.2C1437.4 1137.6 1440 1138.2 1441 1139.8C1441.8 1141.4 1441.4 1143.2 1441.2 1145C1440.8 1146.8 1440.6 1148.8 1441.6 1150.4C1443.4 1152.8 1447.6 1152 1449.4 1149.6C1451.2 1147.2 1451.2 1143.8 1451.2 1140.8C1451.2 1134.2 1453.4 1130 1454.4 1123.4C1454.8 1120.8 1454.6 1117.8 1456.2 1115.6C1457 1114.6 1458.2 1113.8 1459 1112.6C1460.6 1110.4 1460.2 1107 1458.2 1105.2Z"  stroke="#161616" stroke-linecap="round" stroke-linejoin="round"/>
<path d="M1134.8 1428.2C1140 1426.8 1138.2 1420.4 1133.6 1419.4C1130.6 1418.8 1126 1414.8 1123 1416.6C1120.8 1418.2 1121 1421.4 1121.8 1424C1122 1425.2 1122.6 1426.8 1123.8 1427.4C1124.4 1427.6 1125.2 1427.6 1125.8 1427.8C1127.93 1427.93 1130.07 1428.07 1132.2 1428.2C1133 1428.2 1133.8 1428.4 1134.8 1428.2ZM1114.8 1396.8C1118.8 1399 1117.6 1404 1113.4 1404.8C1110.8 1405.4 1106 1402 1106.8 1398.8C1106.8 1398.6 1107 1398.2 1107.4 1398C1108.6 1396.8 1110.2 1396 1111.8 1396C1112.8 1396 1114 1396.2 1114.8 1396.8ZM1110.6 1348.4C1119.8 1345.6 1115.8 1363.2 1107.6 1357.4C1103.4 1354.4 1107 1349.6 1110.6 1348.4ZM1118.2 1360.6C1118 1362.6 1118.6 1364.8 1119.4 1366.2C1119.8 1367 1120.2 1368 1121.2 1368.2C1121.8 1368.6 1122.8 1368.2 1123.6 1368.4C1124.6 1368.8 1125.2 1370.2 1126.4 1370.4C1127.4 1370.6 1128.4 1370 1129.2 1369.2C1130.4 1368.4 1131.4 1367.4 1132 1366C1132.4 1364.6 1131.8 1362.8 1130.4 1362.4C1128.2 1361.8 1127.2 1363.4 1125.4 1361.6C1124.2 1360.4 1125.6 1358 1122.8 1357.2C1119.6 1356.6 1118.4 1358.4 1118.2 1360.6ZM1067 1336.4C1067.6 1334.2 1067.2 1331 1065 1330.2C1062.4 1329.2 1060 1331.2 1058.2 1333.4C1056.73 1335.13 1055.27 1336.93 1053.8 1338.8C1052 1341.2 1050.2 1343.8 1050 1346.8C1049.8 1349.2 1050.8 1351.6 1051.8 1353.8C1053.2 1356.4 1055.4 1359.2 1058.6 1359.4C1062.4 1359.8 1066 1355.8 1069.8 1356.6C1071.6 1357 1072.8 1358 1074.4 1358.8C1076.6 1360.2 1079.8 1360.4 1081.8 1358.8C1083.8 1357 1083.8 1353.2 1081.4 1352.2C1080 1351.6 1078 1352 1077.2 1350.6C1076.2 1349.4 1077.4 1347.6 1077.8 1346.2C1078.4 1344.2 1078 1342 1076.6 1340.8C1075 1339.4 1072.8 1339 1071 1340C1069.4 1340.8 1068.4 1342.6 1068 1344.4C1067.2 1347 1065.2 1348.2 1064.2 1345.2C1063.2 1342.4 1066.2 1339 1067 1336.4ZM1036.2 1341.6C1037 1341 1038 1340.6 1038.8 1340C1042 1337.6 1041.4 1332.8 1040.4 1329C1039.8 1327 1039.2 1325 1037.8 1323.8C1036.2 1322.4 1033.8 1322.4 1031.6 1322.8C1026.2 1324 1021.4 1328.4 1019.8 1333.8C1019.2 1335.8 1019 1338 1017.6 1339.6C1016.6 1340.8 1015 1341.4 1013.6 1342.4C1008.4 1345.6 1005.8 1352.6 1007.6 1358.6C1009.4 1364.4 1014.4 1368.4 1018 1373.2C1018.6 1373.8 1019.2 1374.6 1019.2 1375.6C1019.4 1376.6 1018.8 1377.6 1018.4 1378.6C1016.8 1382 1016.8 1386.4 1019 1389.6C1021 1392.8 1025.2 1394.8 1028.8 1394C1032.6 1393 1035.6 1389.4 1035.4 1385.6C1035.2 1384 1034.8 1382.4 1035.6 1381.2C1036.2 1380.4 1037 1380.2 1037.8 1379.8C1039.8 1379.2 1042.2 1378.6 1044 1380C1045.4 1381 1045.6 1383 1045.4 1384.8C1045.2 1386.6 1044.4 1388.2 1044.4 1390C1044.2 1395 1049.6 1399.2 1054.4 1398C1057.2 1397.2 1060.4 1395 1062.8 1396.6C1063.8 1397.6 1064.2 1399 1065.2 1400.2C1066.8 1402.4 1070.4 1403 1072.6 1401.2C1074.8 1399.6 1075.2 1396 1073.4 1393.8C1072.8 1393 1071.8 1392.4 1071.6 1391.4C1071.4 1389.8 1073.2 1388.6 1074.4 1387.6C1078.4 1384.4 1078.8 1378.4 1078.8 1373.2C1078.8 1371 1078.8 1368.6 1077.6 1366.6C1076 1363.6 1072.2 1362.4 1068.8 1362C1060.6 1361 1056 1366 1048.8 1368.4C1046.8 1369 1044.2 1368.6 1043.6 1366.6C1043.2 1365.6 1043.8 1364.4 1043.8 1363.2C1044 1360.8 1042 1358.2 1039.4 1358C1032.8 1357 1030.4 1345.4 1036.2 1341.6ZM1157.2 1357.2C1160 1358.2 1161 1361.4 1159 1363.6C1155.8 1367 1148.2 1361.8 1151.6 1358.8C1153 1357.4 1155.2 1356.6 1157.2 1357.2ZM1165 1355.4C1166 1357.2 1169 1357.2 1169.4 1359C1169.8 1360.4 1168.8 1361.6 1167.4 1362.2C1166.2 1362.8 1164.8 1363 1163.6 1363.6C1161.4 1364.8 1160.4 1368.2 1161.8 1370.4C1163 1372.2 1165 1373 1166.2 1374.8C1167.6 1376.6 1167.8 1379.4 1169.4 1380.8C1171.2 1382.4 1174.4 1382 1175.6 1380C1177 1377.8 1176 1374.8 1176.4 1372.4C1176.8 1370 1178.6 1368 1180 1365.8C1181.2 1363.8 1182 1360.8 1180.4 1359C1179.6 1358.2 1178.6 1357.6 1178.4 1356.6C1178 1354.2 1182.2 1354 1183.4 1351.8C1184.4 1349.8 1182.2 1346.4 1184.2 1345.4C1184.8 1345.2 1185.4 1345.2 1185.8 1345C1188.6 1344.4 1189 1340.6 1187.6 1338.2C1187 1337.4 1186.4 1336.8 1185.6 1336.6C1183.6 1336 1182 1338.2 1181.2 1340C1180.6 1342 1180.2 1344.4 1178.4 1345.4C1177.4 1345.8 1176.6 1345.8 1175.6 1346.2C1172 1347.2 1171.8 1350.6 1168.6 1352C1166.6 1352.8 1163 1352.2 1165 1355.4ZM1195.2 1367.8C1194.8 1366.6 1193.6 1365.8 1192.6 1366.4C1191.6 1366.8 1191.4 1367.8 1191.2 1368.8C1190.93 1370.13 1190.73 1371.47 1190.6 1372.8C1190.4 1373.2 1190.4 1373.6 1190.2 1373.8C1189.4 1374.4 1188.4 1373.2 1187.4 1373C1186.6 1372.6 1185.6 1373.2 1185.2 1374C1184.6 1374.8 1184.6 1375.6 1184.4 1376.6C1184.2 1378.2 1184.2 1380.2 1185.8 1381C1186.4 1381.2 1187.4 1381.2 1188 1381.4C1189.4 1382 1190 1383.6 1190.2 1385C1190.2 1386.4 1189.8 1387.8 1190 1389.4C1190 1390.8 1190.6 1392.4 1192 1392.8C1193.4 1393.2 1194.8 1392.4 1195.6 1391C1196.2 1389.8 1196 1388.4 1195.6 1387C1195.2 1385.6 1194.4 1383.8 1195.4 1382.8C1196.2 1382 1197.6 1382 1198.8 1381.6C1202.6 1380.2 1200 1376.6 1198.4 1375C1197.4 1374 1196.2 1374 1195.6 1372.6C1195 1371.2 1196 1369.2 1195.2 1367.8ZM1198.2 1316.8C1198.6 1314.6 1200.8 1313 1202.8 1312C1203.2 1311.8 1203.8 1311.4 1204.4 1311.6C1205.6 1311.8 1206 1313.4 1205.6 1314.6C1204.2 1318 1204.6 1316.2 1205.6 1319.2C1206.2 1320.8 1207 1321.8 1207 1323.6C1206.8 1324.2 1206.8 1324.6 1206.4 1325C1203.8 1328.4 1198 1319.4 1198.2 1316.8ZM1284.2 1305C1284.47 1302.87 1284.67 1300.8 1284.8 1298.8C1284.8 1298.4 1284.8 1298.2 1284.8 1297.8C1284.6 1297.2 1284 1296.8 1283.4 1296.6C1280.6 1294.8 1279 1291.2 1279.4 1287.8C1279.6 1287 1279.8 1286.2 1280.4 1285.4C1281 1284.6 1282 1284 1282.8 1283.8C1285.2 1282.8 1287.8 1282.8 1290 1284C1292 1285.2 1293.2 1288 1292.2 1290.2C1291.8 1291.2 1291 1292 1290.6 1292.8C1289.6 1294.6 1290 1296.6 1290.2 1298.6C1290.6 1300.4 1291 1302.6 1290.2 1304.2C1289.4 1306.2 1283.8 1308.2 1284.2 1305ZM1251.6 1303.6C1252 1303.2 1252.8 1302.8 1253.4 1302.2C1255.8 1300 1255.6 1295.4 1253 1293.4C1250.4 1291.2 1246 1292 1244.4 1295C1242.4 1298.2 1244 1302.6 1242.2 1306C1241 1308.2 1238.6 1309.4 1237.2 1311.4C1236 1313.4 1235.6 1316.6 1233.4 1317.4C1232 1317.8 1230.6 1317.4 1229.2 1317.2C1227 1316.8 1224.4 1317.4 1222.8 1319.4C1221.4 1321.2 1221.6 1324.2 1223.4 1325.6C1224.6 1326.4 1225.8 1326.6 1227 1327C1230 1328.6 1231 1333.2 1228.6 1335.8C1227.2 1334.2 1225.8 1332.6 1223.8 1331.8C1222 1330.8 1219.4 1331 1218 1332.6C1216.8 1333.8 1216.4 1336 1214.8 1336.4C1212.6 1337 1211.4 1333.8 1209.4 1332.2C1206.6 1329.8 1202.4 1332.2 1199.4 1334.6C1193.8 1339.4 1188.2 1346.4 1189.8 1353.6C1190.6 1356.4 1192.6 1359 1195.4 1359.2C1196.8 1359.2 1198.2 1358.6 1199.4 1359.4C1201.8 1360.6 1200.6 1365 1203 1366C1204.8 1366.6 1206.4 1364.4 1206.8 1362.6C1207.4 1360.6 1207.6 1358.4 1209.4 1357.4C1210.4 1357 1211.6 1357.2 1212.8 1356.8C1214.2 1356.2 1215 1354.2 1216.6 1353.6C1218.4 1352.8 1220.4 1354 1221.4 1355.8C1222.2 1357.4 1222.2 1359.4 1222 1361.4C1222 1363.8 1221.4 1367 1219 1367.8C1218 1368 1217 1368 1216 1368C1212.4 1368.2 1209 1371.2 1209.2 1374.6C1209.2 1378.2 1213.8 1381 1216.6 1378.8C1217.4 1378 1218 1377 1219.2 1376.8C1220.8 1376.6 1221.8 1378.6 1221.4 1380.2C1221.2 1381.8 1220 1383 1219.2 1384.4C1218.2 1385.8 1217.8 1387.6 1218.8 1389C1220.4 1390.6 1224 1390 1224.4 1392.4C1224.6 1394.2 1222.4 1395 1221 1396.2C1218.8 1398.6 1220.6 1402.8 1223.6 1403.8C1229 1405.2 1230.4 1399.8 1232.4 1396.4C1234.4 1392.8 1238.8 1391 1238.8 1386.6C1238.8 1384.6 1238.2 1382.8 1238.4 1381C1238.8 1376.6 1242.8 1376 1242.8 1371.2C1242.8 1369.4 1243.4 1367.2 1245.2 1366.8C1246.2 1366.6 1247.2 1367.4 1248.2 1367.8C1250 1368.6 1252.2 1369 1254.2 1368.2C1256 1367.4 1257.4 1365.4 1256.8 1363.4C1256.6 1362 1255.2 1360.8 1254.4 1359.6C1253.6 1358.4 1253.2 1356.4 1254.2 1355.6C1254.8 1355.2 1255.4 1355 1256 1354.8C1259 1354 1261.8 1351.8 1262.2 1348.8C1262.6 1345.8 1259 1342.6 1256.4 1344.2C1255.6 1344.6 1255 1345.4 1254.2 1345.6C1251.8 1346.4 1250 1343.2 1250.8 1341C1251.4 1338.8 1253.4 1337.2 1254.8 1335.4C1258.4 1330.4 1257.4 1323.6 1254.4 1318.8C1251.8 1314.8 1247 1308 1251.6 1303.6ZM1281 1261.2C1280.8 1258.8 1284 1257.2 1286.6 1257.4C1289.2 1257.6 1291.8 1258.6 1294.2 1257.6C1300.8 1255.2 1297.2 1243.2 1303 1239.4C1305.8 1237.4 1309.6 1238.4 1313 1238.8C1318.8 1239.6 1325.4 1238.8 1329.2 1234.2C1331.2 1231.8 1332 1228.8 1333.8 1226.2C1341.2 1216 1361 1217.4 1364 1205C1365.4 1199.2 1363 1190.6 1368.8 1188.6C1370.4 1188 1372.4 1188.4 1374.2 1188.6C1381.2 1189 1388.6 1185.2 1391.2 1178.6C1394 1172.2 1391 1163.6 1384.4 1161C1381.4 1159.8 1377.8 1159.8 1375 1158.2C1371 1156 1369 1151.8 1366 1148.6C1358.4 1140.4 1344.8 1140.4 1336.4 1133C1334.8 1131.6 1333.4 1129.6 1333.8 1127.6C1334.2 1126.2 1335.6 1125.2 1336.6 1124.2C1340 1121 1342.2 1116.2 1341.6 1111.4C1340.8 1106.6 1337.2 1102.4 1332.4 1101.6C1329.6 1101.2 1326.8 1102 1324 1102C1316.4 1101.6 1308.2 1094.8 1301.8 1099C1297.2 1102 1296.4 1109.2 1291.4 1111C1288 1112.4 1284.2 1110.6 1280.8 1111.8C1276 1113.2 1273.6 1119.6 1268.8 1120.6C1265.6 1121.2 1262.4 1119.4 1259.6 1117.8C1247.6 1111.8 1233.4 1110.8 1220.8 1115C1215.2 1105.8 1212 1092.8 1200.4 1092.6C1194 1092.6 1182.2 1092.6 1176.4 1096.2C1172.2 1098.8 1169 1104.4 1164 1104.2C1160.4 1103.8 1158 1100.6 1155.2 1098.6C1142.8 1089.6 1122.4 1101.2 1111.2 1090.6C1115.6 1077.2 1108.8 1062.8 1102 1050.4C1101.4 1049.2 1100.6 1047.8 1099.4 1047.2C1097.4 1046.2 1094.6 1047.4 1092.6 1046.2C1088.6 1043.6 1093.4 1036.4 1090 1033C1088 1031.2 1084.8 1032 1082.2 1033C1073.4 1036.2 1061.4 1036.8 1056.8 1028.6C1054.8 1025 1054.2 1019.8 1050.2 1018.8C1045.8 1017.8 1041.4 1023.4 1037.4 1021.6C1036 1021 1035.2 1019.6 1034.2 1018.4C1032.2 1016 1029.4 1014.4 1026.4 1013.6C1026.6 1015.2 1026.6 1016.6 1025.8 1017.8C1023.2 1022.4 1016 1019.6 1011.4 1022C1007.8 1023.6 1006.2 1028.2 1003 1030.4C1000.2 1032.4 996.6 1032.4 993.6 1034.2C988.2 1037.4 986.6 1045.8 980.6 1047.8C978.2 1048.6 975.2 1048.2 973 1049.8C968.8 1053.2 972.4 1060.2 971.2 1065.4C970.6 1068 968.8 1070.2 967.4 1072.4C966 1074.8 965 1077.6 964 1080.2C960.533 1090.2 957.067 1100.13 953.6 1110C951.8 1114.8 950.2 1120.2 952.8 1124.6C954 1126.6 955.8 1128.2 957.6 1129.8C963.4 1135.8 965.6 1144.8 963.4 1152.8C962.8 1154.6 962 1156.6 963 1158.2C964.2 1160.4 967.4 1160.4 969.4 1162C973.6 1165 970.2 1172.2 965.4 1174.4C963.8 1175 962 1175.6 961 1176.8C959 1179 959.6 1182.6 960.4 1185.6C961.4 1190.2 961.8 1195.2 959.6 1199.4C956.4 1205.2 950.2 1207 943.6 1209C944.8 1212.2 945.667 1215.47 946.2 1218.8C948.2 1229.6 949 1241.8 957.2 1248.8C963.8 1254.6 974.4 1256.4 977.6 1264.6C978.6 1266.8 978.8 1269.2 979.6 1271.4C983.2 1279.8 995.6 1281.6 999.2 1290C1003 1299.2 994.2 1310.6 995.2 1319.6C997.6 1319.4 999.8 1319.4 1002 1321.2C1003.6 1322.4 1005.4 1324.2 1007.6 1323.8C1009.4 1323.6 1010.8 1321.8 1012.4 1321C1015 1319.8 1018 1320.8 1020.8 1321.2C1028 1322.4 1036.2 1318.2 1037.6 1311.2C1038.2 1309 1038 1306.6 1038.4 1304.2C1038.6 1302 1039.8 1299.6 1042 1298.8C1042.4 1298.6 1042.8 1298.6 1043.2 1298.6C1045.2 1299 1044.6 1301.8 1044.4 1303.6C1044.2 1306.4 1046.4 1309 1049 1310.2C1051.6 1311.4 1054.6 1311.2 1057.4 1311C1058.4 1310.8 1059.6 1310.6 1060.6 1310C1062 1309 1062.4 1307.2 1063 1305.6C1063.6 1303.4 1064 1301.2 1063.8 1299C1063.6 1296.8 1062.2 1294.4 1060 1293.8C1058.4 1293.4 1055.8 1293 1056 1291.4C1056.2 1290.8 1056.6 1290.4 1057.2 1290.2C1060 1288.4 1064.2 1291 1064 1294.2C1066.6 1293.4 1068.6 1291 1069 1288.4C1069.4 1286 1069.4 1282.6 1071.8 1282.2C1074 1282 1074.8 1285.4 1074.6 1287.6C1074.2 1293.6 1073.8 1299.4 1071.8 1305C1071.2 1306.6 1070.4 1308.2 1070.4 1310C1070.4 1311.2 1070.8 1312.2 1070.8 1313.4C1070.6 1315.8 1069 1317.8 1068.8 1320.2C1068.6 1324.6 1073.8 1327.2 1078.2 1327C1081.4 1327 1085.4 1326.2 1087.4 1328.8C1089.4 1331.4 1088.2 1335.8 1091 1337.2C1091.8 1337.6 1092.8 1337.6 1093.8 1337.6C1097.67 1337.6 1101.53 1337.53 1105.4 1337.4C1107.4 1337.4 1109.6 1337.4 1111.4 1336.6C1113.2 1335.8 1114.8 1334 1114.8 1332C1114.8 1330.6 1114 1329.2 1114.2 1327.8C1114.6 1325 1118.4 1324.4 1121.4 1324.6C1123.13 1324.6 1124.93 1324.67 1126.8 1324.8C1131.4 1325.2 1130 1328 1132 1330.8C1134.2 1333.8 1139 1334.4 1141.2 1331.2C1144.6 1326.6 1139.2 1318.2 1147.8 1316.6C1149.8 1316.2 1152.2 1317.6 1152.2 1319.6C1152.2 1320.6 1151.6 1321.6 1151.4 1322.8C1151 1325.6 1154 1328.2 1153.2 1330.8C1152.6 1333.8 1148.6 1334.2 1146.4 1336.2C1138.8 1342.4 1149.4 1347.6 1155 1347C1158 1346.6 1161 1345.6 1164 1345.4C1167.6 1345 1171.8 1345.2 1173.8 1342.2C1176 1338.8 1173 1334 1174.8 1330.2C1175.8 1327.8 1178.8 1326.6 1179.4 1324C1180.2 1320.6 1176.8 1316.2 1179.4 1313.8C1180 1313.4 1180.6 1313.2 1181 1312.6C1182 1310.8 1179.2 1309.6 1177.4 1309.8C1175.6 1310 1173 1310.2 1172.4 1308.4C1173 1307 1174.6 1306.2 1176.2 1306.2C1177.8 1306 1179.2 1306.6 1180.8 1307C1184 1307.6 1187.8 1307.4 1190.4 1305.6C1194.8 1302.4 1195.2 1295.4 1191.6 1291.4C1187.8 1287.4 1181.4 1287.4 1176.8 1290.2C1173.4 1292.4 1166.8 1300.8 1162.2 1297C1160 1295 1162 1290.4 1163.2 1288.4C1165.2 1285.4 1169.2 1284 1172.6 1283.8C1177.6 1283.6 1182.2 1285.4 1187 1286C1189 1286.2 1191.2 1286.2 1192.2 1284.6C1193.2 1283.4 1192.8 1281.6 1192 1280.4C1191 1279 1189.6 1278.2 1188.4 1277.6C1185.73 1276 1183.07 1274.47 1180.4 1273C1182.4 1270.2 1186.2 1269.2 1189.2 1270.6C1191.2 1271.6 1192.6 1272.6 1194.8 1273.2C1197 1274 1199.6 1273.8 1201.4 1272.2C1202.2 1271.6 1202.8 1270.6 1203.8 1270C1205.4 1269.2 1207.4 1269.8 1209 1271C1210.4 1272 1211.6 1273.6 1213.2 1274.4C1214 1274.8 1215 1275.2 1215.4 1276.2C1215.8 1278 1213.2 1278.6 1211.8 1279.4C1210 1280.4 1209 1282.6 1209.6 1284.6C1210 1286.6 1212 1288 1214 1288C1216.2 1288 1218.2 1286.2 1220.6 1285.8C1223 1285.4 1225.6 1286.4 1227.8 1285.4C1230.8 1284 1231 1279.8 1230.8 1276.6C1230.4 1271.6 1229.4 1265.8 1225.2 1263.2C1224 1262.4 1222.8 1262 1221.6 1261.4C1218.6 1259.6 1216.8 1255.6 1218.4 1252.4C1219.8 1249.2 1224.8 1248 1227.2 1250.6C1229.2 1253 1228.8 1257 1231.4 1258.8C1235.4 1262 1241.8 1255.8 1246.4 1258.4C1249.2 1260.2 1249.4 1264.2 1250.4 1267.4C1252.6 1273.2 1260 1276.6 1265.6 1274.2C1268.4 1273 1271.4 1270.8 1274 1272.2C1275 1272.8 1275.6 1273.8 1276.4 1274.6C1279.4 1277.4 1284.4 1276.8 1288.4 1275.8C1289 1275.8 1289.4 1275.8 1289.8 1275.8C1287.27 1271.8 1284.67 1267.8 1282 1263.8C1281.6 1263 1281 1262.2 1281 1261.2Z"  stroke="#161616" stroke-width="1.5" stroke-linecap="round" stroke-linejoin="round"/>
<path d="M1486.2 952.2C1485.6 951 1485 949.8 1483.8 949.6C1482.4 949.4 1481.4 950.2 1480.4 951C1474.8 956.4 1469.8 962.6 1465.8 969.2C1464 972 1462.4 975 1459.8 977C1457.2 979 1453.4 979.8 1450.6 978C1448.4 976.4 1447.6 973.4 1446.4 970.8C1445.4 968.2 1443.2 965.4 1440.4 965.6C1439.6 965.8 1438.6 966.2 1437.8 966C1436.6 965.6 1436 964.2 1436 962.8C1436.2 959 1440.2 956.8 1443.4 954.6C1449.2 951 1450.8 943.6 1446.8 938C1444.8 935 1441.6 933 1440.4 929.8C1439.2 926.8 1440 923.4 1439.8 920C1439.4 915.4 1436.6 911.2 1435.4 906.8C1434.2 901.8 1434.6 896.6 1435 891.4C1435.53 884.733 1436.13 878.067 1436.8 871.4C1437.2 865.2 1438 858.4 1442.2 853.6C1443.6 851.8 1445.6 850.4 1447.2 848.6C1449.8 845.4 1451 841.4 1451.8 837.2C1453.8 828 1453.8 818.4 1453.6 808.8C1453.6 804.8 1453.6 800.6 1452.4 796.8C1451 792.8 1448.2 789.2 1446.4 785.2C1444.8 781.2 1444.4 775.8 1447.6 772.8C1448.2 767.4 1448.2 762.8 1451.4 758.6C1453.8 755.6 1457.2 753.6 1459.4 750.6C1462.6 746 1462.8 740 1462.6 734.4C1462.2 725.8 1461.6 717 1457.8 709.4C1455.6 705.2 1452.6 701.4 1450.8 697.2C1449.6 693.8 1449 690.2 1448.4 686.6C1447.2 677.8 1445.8 668.8 1445.8 659.8C1445.6 650 1446.2 640.2 1446.8 630.4C1446.8 628.6 1447 626.8 1446.4 625C1445.8 623 1444 622 1442.4 620.8C1438.6 618 1435.8 615 1434.4 610.4C1433.4 607.4 1433.4 603.8 1431.8 601C1431 599.4 1429.8 598.2 1429 597C1419.4 600.2 1411.2 607 1406.6 615.8C1403.2 622.6 1400.2 631.4 1392.8 632.2C1381.6 633.4 1377 615.4 1365.8 614.8C1359.4 614.4 1354.2 620.4 1348 622.2C1337.6 625.4 1326 616.8 1316 621C1310.2 623.6 1303.4 630.4 1298.8 625.8C1296.8 623.8 1296.8 620.6 1296.4 617.6C1295 609.8 1288 603.4 1280 602.8C1276.6 602.6 1272.6 603.8 1271 607C1269.6 609.8 1270.6 613 1271 616C1272 624 1269.4 632.4 1263.8 638.2C1259 639.6 1254 636.8 1250.4 633.2C1247.4 630.4 1244.8 627 1241.4 624.4C1239.4 626.8 1236.8 628.4 1234 629.6C1227.6 631.8 1218.8 631.8 1216.8 638.2C1216.2 640 1216.4 642 1216.2 643.8C1215 652.4 1206 657.4 1197.8 660.8C1189.8 664.2 1180.6 668.8 1179 677.2C1177.2 686.6 1185.2 697.4 1179.4 704.8C1178 706.6 1175.6 707.8 1173.4 709C1167.4 711.6 1161 713.4 1154.4 714C1152.8 714.2 1151 714.2 1149.6 713.2C1148 712 1147.6 710 1146.8 708C1145 701.8 1139.8 696.6 1133.4 695.6C1122.4 693.6 1117 705.6 1106.8 707.4C1103 708.2 1099.2 707 1095.4 707C1091 707 1077.4 711 1074.4 714.6C1070.2 719.6 1072.6 733 1077 737.2C1079 739 1081.8 741.2 1080.4 743.4C1078.4 746.2 1074.8 742.2 1071.8 740.6C1068.4 738.8 1064.2 740.4 1060.4 741.4C1056.8 742.4 1051.6 742 1050.6 738.2C1050.4 744.8 1044 750.6 1037.4 750.4C1035.6 750.4 1033.6 750 1032 750.6C1026.6 752.8 1030 761.4 1027 766.4C1024.6 770.2 1019.4 770.6 1015.2 771.6C1010.8 772.4 1005.8 775.8 1007 780C1008.4 785.6 1017.6 784.2 1021.4 788.8C1023.2 791 1023.4 794.6 1025.8 796.2C1027.4 797.6 1029.6 797.4 1031.4 798.6C1035.6 801 1034.6 807 1033.6 811.6C1030 825.4 1028.2 839.6 1027.8 853.8C1027.8 857.8 1027.8 861.8 1026.2 865.6C1024.4 869.8 1020.6 873.2 1019.4 877.8C1018 882.2 1022 888.4 1026.2 886.4C1028 885.6 1028.8 883.8 1030.4 882.8C1033 880.6 1036.8 881 1039.6 882.6C1042.6 884.4 1044.6 887 1046.8 889.6C1048.8 891.8 1051.2 894.4 1054.2 894.2C1057.4 893.8 1059.8 890.6 1063 890.2C1067.2 889.8 1070 894.2 1071.2 898.2C1072.6 902 1073.6 906.8 1077.2 908.6C1075.6 912.2 1071.4 914.4 1067.4 913.8C1065.2 913.4 1062.6 912 1060.6 913.4C1058.4 915 1059.2 918.2 1059.8 920.8C1060.6 924 1061 927.4 1060 930.6C1058.8 934.2 1056 937.2 1054.4 940.8C1052.8 944.8 1052.6 949.2 1051.4 953.4C1050.4 957.6 1047.6 961.8 1043.4 962.6C1041.6 963 1039.8 962.6 1038 963.2C1036.6 963.6 1035.4 964.8 1034.2 966C1031.4 969.067 1028.87 972.267 1026.6 975.6C1029.2 978 1031.8 980.6 1033.4 984C1036 989 1036.2 995.8 1032.2 999.8C1030.2 1002 1027.2 1003.4 1026.2 1006C1025.4 1008.4 1026.2 1011.2 1026.4 1013.6C1029.4 1014.4 1032.2 1016 1034.2 1018.4C1035.2 1019.6 1036 1021 1037.4 1021.6C1041.4 1023.4 1045.8 1017.8 1050.2 1018.8C1054.2 1019.8 1054.8 1025 1056.8 1028.6C1061.4 1036.8 1073.4 1036.2 1082.2 1033C1084.8 1032 1088 1031.2 1090 1033C1093.4 1036.4 1088.6 1043.6 1092.6 1046.2C1094.6 1047.4 1097.4 1046.2 1099.4 1047.2C1100.6 1047.8 1101.4 1049.2 1102 1050.4C1108.8 1062.8 1115.6 1077.2 1111.2 1090.6C1122.4 1101.2 1142.8 1089.6 1155.2 1098.6C1158 1100.6 1160.4 1103.8 1164 1104.2C1169 1104.4 1172.2 1098.8 1176.4 1096.2C1182.2 1092.6 1194 1092.6 1200.4 1092.6C1212 1092.8 1215.2 1105.8 1220.8 1115C1233.4 1110.8 1247.6 1111.8 1259.6 1117.8C1262.4 1119.4 1265.6 1121.2 1268.8 1120.6C1273.6 1119.6 1276 1113.2 1280.8 1111.8C1284.2 1110.6 1288 1112.4 1291.4 1111C1296.4 1109.2 1297.2 1102 1301.8 1099C1308.2 1094.8 1316.4 1101.6 1324 1102C1326.8 1102 1329.6 1101.2 1332.4 1101.6C1333.8 1101.8 1335 1102.4 1336.2 1103.2C1338.8 1100.6 1342 1098.6 1345.6 1097.8C1347.2 1097.6 1349.2 1097.4 1350.6 1096.4C1353.8 1094 1352.2 1089 1352.4 1085C1352.8 1078.8 1357.8 1074 1363.6 1071.8C1369.2 1069.8 1375.4 1069.8 1381.4 1070.2C1390 1070.6 1400.2 1072.4 1403 1080.4C1404 1083.2 1403.8 1086.4 1405.6 1088.8C1407.8 1092 1412.4 1092.6 1416.2 1091.8C1420 1090.8 1423.4 1088.8 1427.2 1087.6C1432.4 1086 1438 1086.4 1443.4 1087.4C1447.6 1088 1451.6 1089.2 1455.4 1090.4C1455.93 1089.47 1456.4 1088.47 1456.8 1087.4C1459.4 1081.6 1461 1075.4 1462.8 1069.4C1466.27 1056.87 1469.73 1044.27 1473.2 1031.6C1474.8 1025.8 1476.4 1019.8 1476 1013.8C1475.8 1011.4 1475.2 1008.8 1475.2 1006.4C1475.8 999.2 1482.2 993.6 1482.4 986.4C1482.6 984.4 1482.2 982.2 1483.4 980.6C1484.2 979.8 1485.4 979.4 1486.2 978.6C1488 977.2 1488.6 975 1488.8 972.8C1489.8 965.8 1488.8 958.6 1486.2 952.2Z"  stroke="#161616" stroke-width="1.5" stroke-linecap="round" stroke-linejoin="round"/>
<path d="M744.8 446.6C743.2 446.4 741.6 446.2 740 446.6C734 447.8 732.6 456.6 735.6 462C738.6 467.6 743.8 471.6 746.6 477.2C748.2 480.2 748.8 483.6 750.6 486.6C754 492.4 761 495.2 767.2 497.8C771.8 499.6 777.2 501 781 498C784 495.4 784.6 490 788.4 488.8C793.6 487.2 796.8 494.6 801.4 497.4C804 498.8 807 498.8 809.8 498.4C816.2 497.2 821.8 493.4 827.2 489.6C829.2 488.2 831.2 486.8 833 485C837 480.4 838.4 473.8 836.6 468C834.8 462.2 829.6 457.6 823.8 456.2C820.6 455.6 816.6 455.2 815.6 452.2C815.2 451 815.6 449.6 815.8 448.2C817 443 816.2 437.4 815 432.2C814.4 429 815.2 421.2 814 418.6C810.4 411.2 796.8 413.6 791.4 417.4C783.2 423.4 780.8 434.6 772 440.2C764 445.2 754.2 447.6 744.8 446.6Z"  stroke="#161616" stroke-width="1.5" stroke-linecap="round" stroke-linejoin="round"/>
<path d="M1216.6 983.4C1214.07 984.867 1211.53 986.267 1209 987.6C1206.6 989 1204.2 990.4 1203 992.8C1200.6 997.6 1204.4 1004.6 1200.2 1008.2C1196.8 1011 1191.8 1008 1188.6 1005C1185.4 1002 1181.4 998.2 1177.4 999.6C1175.4 1000.2 1174 1001.8 1172.8 1003.4C1170 1007 1167.8 1011 1167.4 1015.6C1167.2 1020 1169.6 1024.8 1173.8 1026.2C1177.8 1027.8 1183.4 1026.2 1186 1029.6C1188.8 1033.4 1184.8 1038.6 1180.6 1040.6C1176.4 1042.4 1171.2 1043.4 1169 1047.4C1163.8 1056.2 1177.2 1068 1171.2 1076.2C1167.6 1072.6 1161 1076.2 1159.8 1081.2C1158.6 1086.2 1161 1091.2 1163.2 1095.8C1164 1097.2 1165 1098.8 1166.4 1099.8C1168 1101 1170 1101 1172 1101C1181.8 1101.2 1193 1100.8 1198.8 1093.2C1201.8 1089.2 1202.6 1084.2 1203.6 1079.4C1204.6 1074.6 1205.8 1069.6 1209.2 1066.2C1212.6 1062.6 1218.8 1061.4 1222.2 1064.6C1223.4 1065.6 1224 1067 1225 1068C1227.8 1071.6 1233 1073 1237.2 1071.4C1241.4 1069.8 1244.4 1065.4 1244.4 1061C1249.6 1060.8 1256 1058.4 1256.6 1053.2C1256.8 1051 1255.8 1048.8 1255.6 1046.6C1255.2 1043.2 1256.4 1039.6 1257.6 1036.4C1260.4 1028.93 1263.13 1021.47 1265.8 1014C1267.4 1009.8 1269 1004.8 1266.8 1000.8C1264.8 997.4 1260.6 995.8 1257.6 993.2C1251.8 988.2 1253.4 979.2 1246.2 976C1237.2 972 1224.2 979.2 1216.6 983.4Z"  stroke="#161616" stroke-width="1.5" stroke-linecap="round" stroke-linejoin="round"/>
<path d="M753 1225.2C747 1227 742.4 1233.2 736 1233.6C730.6 1234 725.8 1230 720.6 1229.4C715.4 1228.8 710.4 1231.2 706.6 1234.6C702.8 1238.2 700.2 1242.6 697.6 1247C695.6 1250.4 693.8 1253.8 693.2 1257.6C692.8 1261.4 694.2 1265.8 697.6 1267.6C701.4 1269.6 706.2 1267.6 710.6 1267.8C716.8 1267.8 722.4 1272.2 724.4 1277.8C725.2 1280.4 725.2 1283.4 727 1285.4C729.6 1288.8 734.8 1288.8 738.6 1287C742.4 1285.2 745.8 1282.2 749.6 1280.6C759.2 1276.4 770.6 1280.6 780.8 1278C790.2 1275.6 788.6 1269.2 789.4 1261.4C789.8 1257 792 1251 788.8 1247.6C786.8 1245.2 781.6 1246.6 779 1242.2C773.8 1233 766 1221 753 1225.2Z"  stroke="#161616" stroke-width="1.5" stroke-linecap="round" stroke-linejoin="round"/>
</svg>
